<mxfile host="Electron" modified="2024-07-14T18:35:10.281Z" agent="Mozilla/5.0 (Windows NT 10.0; Win64; x64) AppleWebKit/537.36 (KHTML, like Gecko) draw.io/24.6.4 Chrome/124.0.6367.207 Electron/30.0.6 Safari/537.36" etag="wZRCTfnhR8fU9UziyEM_" version="24.6.4" type="device" pages="4">
  <diagram id="C5RBs43oDa-KdzZeNtuy" name="MCD">
    <mxGraphModel dx="1434" dy="1992" grid="1" gridSize="10" guides="1" tooltips="1" connect="1" arrows="1" fold="1" page="1" pageScale="1" pageWidth="827" pageHeight="1169" math="0" shadow="0">
      <root>
        <mxCell id="WIyWlLk6GJQsqaUBKTNV-0" />
        <mxCell id="WIyWlLk6GJQsqaUBKTNV-1" parent="WIyWlLk6GJQsqaUBKTNV-0" />
        <mxCell id="XqH-Hx1yyQKgfLsYY9-W-4" value="utilisateurice" style="swimlane;fontStyle=0;childLayout=stackLayout;horizontal=1;startSize=30;horizontalStack=0;resizeParent=1;resizeParentMax=0;resizeLast=0;collapsible=1;marginBottom=0;whiteSpace=wrap;html=1;fillColor=#6d8764;strokeColor=#3A5431;swimlaneFillColor=none;fontColor=#ffffff;" parent="WIyWlLk6GJQsqaUBKTNV-1" vertex="1">
          <mxGeometry x="584" y="-920" width="180" height="210" as="geometry" />
        </mxCell>
        <mxCell id="XqH-Hx1yyQKgfLsYY9-W-18" value="id" style="text;align=left;verticalAlign=middle;spacingLeft=4;spacingRight=4;overflow=hidden;points=[[0,0.5],[1,0.5]];portConstraint=eastwest;rotatable=0;whiteSpace=wrap;html=1;" parent="XqH-Hx1yyQKgfLsYY9-W-4" vertex="1">
          <mxGeometry y="30" width="180" height="30" as="geometry" />
        </mxCell>
        <mxCell id="XqH-Hx1yyQKgfLsYY9-W-22" value="date_creation" style="text;strokeColor=none;fillColor=none;align=left;verticalAlign=middle;spacingLeft=4;spacingRight=4;overflow=hidden;points=[[0,0.5],[1,0.5]];portConstraint=eastwest;rotatable=0;whiteSpace=wrap;html=1;" parent="XqH-Hx1yyQKgfLsYY9-W-4" vertex="1">
          <mxGeometry y="60" width="180" height="30" as="geometry" />
        </mxCell>
        <mxCell id="XqH-Hx1yyQKgfLsYY9-W-21" value="image_profil" style="text;strokeColor=none;fillColor=none;align=left;verticalAlign=middle;spacingLeft=4;spacingRight=4;overflow=hidden;points=[[0,0.5],[1,0.5]];portConstraint=eastwest;rotatable=0;whiteSpace=wrap;html=1;" parent="XqH-Hx1yyQKgfLsYY9-W-4" vertex="1">
          <mxGeometry y="90" width="180" height="30" as="geometry" />
        </mxCell>
        <mxCell id="XqH-Hx1yyQKgfLsYY9-W-20" value="mail" style="text;strokeColor=none;fillColor=none;align=left;verticalAlign=middle;spacingLeft=4;spacingRight=4;overflow=hidden;points=[[0,0.5],[1,0.5]];portConstraint=eastwest;rotatable=0;whiteSpace=wrap;html=1;" parent="XqH-Hx1yyQKgfLsYY9-W-4" vertex="1">
          <mxGeometry y="120" width="180" height="30" as="geometry" />
        </mxCell>
        <mxCell id="XqH-Hx1yyQKgfLsYY9-W-19" value="pseudo" style="text;strokeColor=none;fillColor=none;align=left;verticalAlign=middle;spacingLeft=4;spacingRight=4;overflow=hidden;points=[[0,0.5],[1,0.5]];portConstraint=eastwest;rotatable=0;whiteSpace=wrap;html=1;" parent="XqH-Hx1yyQKgfLsYY9-W-4" vertex="1">
          <mxGeometry y="150" width="180" height="30" as="geometry" />
        </mxCell>
        <mxCell id="sh5u0eZ9CUBRLmIqrZn7-0" value="mot de passe" style="text;strokeColor=none;fillColor=none;align=left;verticalAlign=middle;spacingLeft=4;spacingRight=4;overflow=hidden;points=[[0,0.5],[1,0.5]];portConstraint=eastwest;rotatable=0;whiteSpace=wrap;html=1;" parent="XqH-Hx1yyQKgfLsYY9-W-4" vertex="1">
          <mxGeometry y="180" width="180" height="30" as="geometry" />
        </mxCell>
        <mxCell id="XqH-Hx1yyQKgfLsYY9-W-8" value="&lt;div&gt;observation&lt;/div&gt;&lt;div&gt;observe&lt;/div&gt;&lt;div&gt;être observé&lt;/div&gt;" style="swimlane;fontStyle=0;childLayout=stackLayout;horizontal=1;startSize=55;horizontalStack=0;resizeParent=1;resizeParentMax=0;resizeLast=0;collapsible=1;marginBottom=0;whiteSpace=wrap;html=1;fillColor=#cdeb8b;strokeColor=#36393d;swimlaneFillColor=none;rounded=1;sketch=1;curveFitting=1;jiggle=2;glass=1;" parent="WIyWlLk6GJQsqaUBKTNV-1" vertex="1">
          <mxGeometry x="324" y="-1154" width="180" height="325" as="geometry" />
        </mxCell>
        <mxCell id="XqH-Hx1yyQKgfLsYY9-W-9" value="id" style="text;align=left;verticalAlign=middle;spacingLeft=4;spacingRight=4;overflow=hidden;points=[[0,0.5],[1,0.5]];portConstraint=eastwest;rotatable=0;whiteSpace=wrap;html=1;" parent="XqH-Hx1yyQKgfLsYY9-W-8" vertex="1">
          <mxGeometry y="55" width="180" height="30" as="geometry" />
        </mxCell>
        <mxCell id="XqH-Hx1yyQKgfLsYY9-W-10" value="date_creation" style="text;strokeColor=none;fillColor=none;align=left;verticalAlign=middle;spacingLeft=4;spacingRight=4;overflow=hidden;points=[[0,0.5],[1,0.5]];portConstraint=eastwest;rotatable=0;whiteSpace=wrap;html=1;" parent="XqH-Hx1yyQKgfLsYY9-W-8" vertex="1">
          <mxGeometry y="85" width="180" height="30" as="geometry" />
        </mxCell>
        <mxCell id="XqH-Hx1yyQKgfLsYY9-W-11" value="date_observation" style="text;strokeColor=none;fillColor=none;align=left;verticalAlign=middle;spacingLeft=4;spacingRight=4;overflow=hidden;points=[[0,0.5],[1,0.5]];portConstraint=eastwest;rotatable=0;whiteSpace=wrap;html=1;" parent="XqH-Hx1yyQKgfLsYY9-W-8" vertex="1">
          <mxGeometry y="115" width="180" height="30" as="geometry" />
        </mxCell>
        <mxCell id="XqH-Hx1yyQKgfLsYY9-W-75" value="description" style="text;strokeColor=none;fillColor=none;align=left;verticalAlign=middle;spacingLeft=4;spacingRight=4;overflow=hidden;points=[[0,0.5],[1,0.5]];portConstraint=eastwest;rotatable=0;whiteSpace=wrap;html=1;" parent="XqH-Hx1yyQKgfLsYY9-W-8" vertex="1">
          <mxGeometry y="145" width="180" height="30" as="geometry" />
        </mxCell>
        <mxCell id="XqH-Hx1yyQKgfLsYY9-W-90" value="temperature" style="text;strokeColor=none;fillColor=none;align=left;verticalAlign=middle;spacingLeft=4;spacingRight=4;overflow=hidden;points=[[0,0.5],[1,0.5]];portConstraint=eastwest;rotatable=0;whiteSpace=wrap;html=1;" parent="XqH-Hx1yyQKgfLsYY9-W-8" vertex="1">
          <mxGeometry y="175" width="180" height="30" as="geometry" />
        </mxCell>
        <mxCell id="XqH-Hx1yyQKgfLsYY9-W-93" value="taux_humidite" style="text;strokeColor=none;fillColor=none;align=left;verticalAlign=middle;spacingLeft=4;spacingRight=4;overflow=hidden;points=[[0,0.5],[1,0.5]];portConstraint=eastwest;rotatable=0;whiteSpace=wrap;html=1;" parent="XqH-Hx1yyQKgfLsYY9-W-8" vertex="1">
          <mxGeometry y="205" width="180" height="30" as="geometry" />
        </mxCell>
        <mxCell id="XqH-Hx1yyQKgfLsYY9-W-91" value="latitude" style="text;strokeColor=none;fillColor=none;align=left;verticalAlign=middle;spacingLeft=4;spacingRight=4;overflow=hidden;points=[[0,0.5],[1,0.5]];portConstraint=eastwest;rotatable=0;whiteSpace=wrap;html=1;" parent="XqH-Hx1yyQKgfLsYY9-W-8" vertex="1">
          <mxGeometry y="235" width="180" height="30" as="geometry" />
        </mxCell>
        <mxCell id="XqH-Hx1yyQKgfLsYY9-W-92" value="longitude" style="text;strokeColor=none;fillColor=none;align=left;verticalAlign=middle;spacingLeft=4;spacingRight=4;overflow=hidden;points=[[0,0.5],[1,0.5]];portConstraint=eastwest;rotatable=0;whiteSpace=wrap;html=1;" parent="XqH-Hx1yyQKgfLsYY9-W-8" vertex="1">
          <mxGeometry y="265" width="180" height="30" as="geometry" />
        </mxCell>
        <mxCell id="XqH-Hx1yyQKgfLsYY9-W-94" value="organisme_hote" style="text;strokeColor=none;fillColor=none;align=left;verticalAlign=middle;spacingLeft=4;spacingRight=4;overflow=hidden;points=[[0,0.5],[1,0.5]];portConstraint=eastwest;rotatable=0;whiteSpace=wrap;html=1;" parent="XqH-Hx1yyQKgfLsYY9-W-8" vertex="1">
          <mxGeometry y="295" width="180" height="30" as="geometry" />
        </mxCell>
        <mxCell id="XqH-Hx1yyQKgfLsYY9-W-12" value="insecte" style="swimlane;fontStyle=0;childLayout=stackLayout;horizontal=1;startSize=30;horizontalStack=0;resizeParent=1;resizeParentMax=0;resizeLast=0;collapsible=1;marginBottom=0;whiteSpace=wrap;html=1;fillColor=#6d8764;strokeColor=#3A5431;swimlaneFillColor=none;fontColor=#ffffff;" parent="WIyWlLk6GJQsqaUBKTNV-1" vertex="1">
          <mxGeometry x="64" y="-849" width="180" height="420" as="geometry" />
        </mxCell>
        <mxCell id="XqH-Hx1yyQKgfLsYY9-W-13" value="id" style="text;align=left;verticalAlign=middle;spacingLeft=4;spacingRight=4;overflow=hidden;points=[[0,0.5],[1,0.5]];portConstraint=eastwest;rotatable=0;whiteSpace=wrap;html=1;" parent="XqH-Hx1yyQKgfLsYY9-W-12" vertex="1">
          <mxGeometry y="30" width="180" height="30" as="geometry" />
        </mxCell>
        <mxCell id="XqH-Hx1yyQKgfLsYY9-W-14" value="nom_commun" style="text;strokeColor=none;fillColor=none;align=left;verticalAlign=middle;spacingLeft=4;spacingRight=4;overflow=hidden;points=[[0,0.5],[1,0.5]];portConstraint=eastwest;rotatable=0;whiteSpace=wrap;html=1;" parent="XqH-Hx1yyQKgfLsYY9-W-12" vertex="1">
          <mxGeometry y="60" width="180" height="30" as="geometry" />
        </mxCell>
        <mxCell id="XqH-Hx1yyQKgfLsYY9-W-15" value="nom_scientifique" style="text;strokeColor=none;fillColor=none;align=left;verticalAlign=middle;spacingLeft=4;spacingRight=4;overflow=hidden;points=[[0,0.5],[1,0.5]];portConstraint=eastwest;rotatable=0;whiteSpace=wrap;html=1;" parent="XqH-Hx1yyQKgfLsYY9-W-12" vertex="1">
          <mxGeometry y="90" width="180" height="30" as="geometry" />
        </mxCell>
        <mxCell id="XqH-Hx1yyQKgfLsYY9-W-16" value="ordre" style="text;strokeColor=none;fillColor=none;align=left;verticalAlign=middle;spacingLeft=4;spacingRight=4;overflow=hidden;points=[[0,0.5],[1,0.5]];portConstraint=eastwest;rotatable=0;whiteSpace=wrap;html=1;" parent="XqH-Hx1yyQKgfLsYY9-W-12" vertex="1">
          <mxGeometry y="120" width="180" height="30" as="geometry" />
        </mxCell>
        <mxCell id="XqH-Hx1yyQKgfLsYY9-W-17" value="famille" style="text;strokeColor=none;fillColor=none;align=left;verticalAlign=middle;spacingLeft=4;spacingRight=4;overflow=hidden;points=[[0,0.5],[1,0.5]];portConstraint=eastwest;rotatable=0;whiteSpace=wrap;html=1;" parent="XqH-Hx1yyQKgfLsYY9-W-12" vertex="1">
          <mxGeometry y="150" width="180" height="30" as="geometry" />
        </mxCell>
        <mxCell id="XqH-Hx1yyQKgfLsYY9-W-29" value="taille" style="text;strokeColor=none;fillColor=none;align=left;verticalAlign=middle;spacingLeft=4;spacingRight=4;overflow=hidden;points=[[0,0.5],[1,0.5]];portConstraint=eastwest;rotatable=0;whiteSpace=wrap;html=1;" parent="XqH-Hx1yyQKgfLsYY9-W-12" vertex="1">
          <mxGeometry y="180" width="180" height="30" as="geometry" />
        </mxCell>
        <mxCell id="XqH-Hx1yyQKgfLsYY9-W-23" value="couleur" style="text;strokeColor=none;fillColor=none;align=left;verticalAlign=middle;spacingLeft=4;spacingRight=4;overflow=hidden;points=[[0,0.5],[1,0.5]];portConstraint=eastwest;rotatable=0;whiteSpace=wrap;html=1;" parent="XqH-Hx1yyQKgfLsYY9-W-12" vertex="1">
          <mxGeometry y="210" width="180" height="30" as="geometry" />
        </mxCell>
        <mxCell id="XqH-Hx1yyQKgfLsYY9-W-24" value="description" style="text;strokeColor=none;fillColor=none;align=left;verticalAlign=middle;spacingLeft=4;spacingRight=4;overflow=hidden;points=[[0,0.5],[1,0.5]];portConstraint=eastwest;rotatable=0;whiteSpace=wrap;html=1;" parent="XqH-Hx1yyQKgfLsYY9-W-12" vertex="1">
          <mxGeometry y="240" width="180" height="30" as="geometry" />
        </mxCell>
        <mxCell id="XqH-Hx1yyQKgfLsYY9-W-25" value="alimentation_type" style="text;strokeColor=none;fillColor=none;align=left;verticalAlign=middle;spacingLeft=4;spacingRight=4;overflow=hidden;points=[[0,0.5],[1,0.5]];portConstraint=eastwest;rotatable=0;whiteSpace=wrap;html=1;" parent="XqH-Hx1yyQKgfLsYY9-W-12" vertex="1">
          <mxGeometry y="270" width="180" height="30" as="geometry" />
        </mxCell>
        <mxCell id="XqH-Hx1yyQKgfLsYY9-W-26" value="alimentation_regime" style="text;strokeColor=none;fillColor=none;align=left;verticalAlign=middle;spacingLeft=4;spacingRight=4;overflow=hidden;points=[[0,0.5],[1,0.5]];portConstraint=eastwest;rotatable=0;whiteSpace=wrap;html=1;" parent="XqH-Hx1yyQKgfLsYY9-W-12" vertex="1">
          <mxGeometry y="300" width="180" height="30" as="geometry" />
        </mxCell>
        <mxCell id="XqH-Hx1yyQKgfLsYY9-W-27" value="role_ecologique" style="text;strokeColor=none;fillColor=none;align=left;verticalAlign=middle;spacingLeft=4;spacingRight=4;overflow=hidden;points=[[0,0.5],[1,0.5]];portConstraint=eastwest;rotatable=0;whiteSpace=wrap;html=1;" parent="XqH-Hx1yyQKgfLsYY9-W-12" vertex="1">
          <mxGeometry y="330" width="180" height="30" as="geometry" />
        </mxCell>
        <mxCell id="XqH-Hx1yyQKgfLsYY9-W-28" value="duree_de_vie" style="text;strokeColor=none;fillColor=none;align=left;verticalAlign=middle;spacingLeft=4;spacingRight=4;overflow=hidden;points=[[0,0.5],[1,0.5]];portConstraint=eastwest;rotatable=0;whiteSpace=wrap;html=1;" parent="XqH-Hx1yyQKgfLsYY9-W-12" vertex="1">
          <mxGeometry y="360" width="180" height="30" as="geometry" />
        </mxCell>
        <mxCell id="XqH-Hx1yyQKgfLsYY9-W-38" value="stade" style="text;strokeColor=none;fillColor=none;align=left;verticalAlign=middle;spacingLeft=4;spacingRight=4;overflow=hidden;points=[[0,0.5],[1,0.5]];portConstraint=eastwest;rotatable=0;whiteSpace=wrap;html=1;" parent="XqH-Hx1yyQKgfLsYY9-W-12" vertex="1">
          <mxGeometry y="390" width="180" height="30" as="geometry" />
        </mxCell>
        <mxCell id="XqH-Hx1yyQKgfLsYY9-W-30" value="habitat" style="swimlane;fontStyle=0;childLayout=stackLayout;horizontal=1;startSize=30;horizontalStack=0;resizeParent=1;resizeParentMax=0;resizeLast=0;collapsible=1;marginBottom=0;whiteSpace=wrap;html=1;fillColor=#6d8764;strokeColor=#3A5431;swimlaneFillColor=none;fontColor=#ffffff;" parent="WIyWlLk6GJQsqaUBKTNV-1" vertex="1">
          <mxGeometry x="584" y="-701" width="180" height="120" as="geometry" />
        </mxCell>
        <mxCell id="XqH-Hx1yyQKgfLsYY9-W-31" value="id" style="text;align=left;verticalAlign=middle;spacingLeft=4;spacingRight=4;overflow=hidden;points=[[0,0.5],[1,0.5]];portConstraint=eastwest;rotatable=0;whiteSpace=wrap;html=1;" parent="XqH-Hx1yyQKgfLsYY9-W-30" vertex="1">
          <mxGeometry y="30" width="180" height="30" as="geometry" />
        </mxCell>
        <mxCell id="XqH-Hx1yyQKgfLsYY9-W-32" value="regions" style="text;strokeColor=none;fillColor=none;align=left;verticalAlign=middle;spacingLeft=4;spacingRight=4;overflow=hidden;points=[[0,0.5],[1,0.5]];portConstraint=eastwest;rotatable=0;whiteSpace=wrap;html=1;" parent="XqH-Hx1yyQKgfLsYY9-W-30" vertex="1">
          <mxGeometry y="60" width="180" height="30" as="geometry" />
        </mxCell>
        <mxCell id="XqH-Hx1yyQKgfLsYY9-W-33" value="environnement" style="text;strokeColor=none;fillColor=none;align=left;verticalAlign=middle;spacingLeft=4;spacingRight=4;overflow=hidden;points=[[0,0.5],[1,0.5]];portConstraint=eastwest;rotatable=0;whiteSpace=wrap;html=1;" parent="XqH-Hx1yyQKgfLsYY9-W-30" vertex="1">
          <mxGeometry y="90" width="180" height="30" as="geometry" />
        </mxCell>
        <mxCell id="XqH-Hx1yyQKgfLsYY9-W-40" value="caracterisque" style="swimlane;fontStyle=0;childLayout=stackLayout;horizontal=1;startSize=30;horizontalStack=0;resizeParent=1;resizeParentMax=0;resizeLast=0;collapsible=1;marginBottom=0;whiteSpace=wrap;html=1;fillColor=#6d8764;strokeColor=#3A5431;swimlaneFillColor=none;fontColor=#ffffff;" parent="WIyWlLk6GJQsqaUBKTNV-1" vertex="1">
          <mxGeometry x="584" y="-570" width="180" height="180" as="geometry" />
        </mxCell>
        <mxCell id="XqH-Hx1yyQKgfLsYY9-W-41" value="id" style="text;align=left;verticalAlign=middle;spacingLeft=4;spacingRight=4;overflow=hidden;points=[[0,0.5],[1,0.5]];portConstraint=eastwest;rotatable=0;whiteSpace=wrap;html=1;" parent="XqH-Hx1yyQKgfLsYY9-W-40" vertex="1">
          <mxGeometry y="30" width="180" height="30" as="geometry" />
        </mxCell>
        <mxCell id="XqH-Hx1yyQKgfLsYY9-W-42" value="ailes" style="text;strokeColor=none;fillColor=none;align=left;verticalAlign=middle;spacingLeft=4;spacingRight=4;overflow=hidden;points=[[0,0.5],[1,0.5]];portConstraint=eastwest;rotatable=0;whiteSpace=wrap;html=1;" parent="XqH-Hx1yyQKgfLsYY9-W-40" vertex="1">
          <mxGeometry y="60" width="180" height="30" as="geometry" />
        </mxCell>
        <mxCell id="XqH-Hx1yyQKgfLsYY9-W-43" value="pattes" style="text;strokeColor=none;fillColor=none;align=left;verticalAlign=middle;spacingLeft=4;spacingRight=4;overflow=hidden;points=[[0,0.5],[1,0.5]];portConstraint=eastwest;rotatable=0;whiteSpace=wrap;html=1;" parent="XqH-Hx1yyQKgfLsYY9-W-40" vertex="1">
          <mxGeometry y="90" width="180" height="30" as="geometry" />
        </mxCell>
        <mxCell id="XqH-Hx1yyQKgfLsYY9-W-44" value="antennes" style="text;strokeColor=none;fillColor=none;align=left;verticalAlign=middle;spacingLeft=4;spacingRight=4;overflow=hidden;points=[[0,0.5],[1,0.5]];portConstraint=eastwest;rotatable=0;whiteSpace=wrap;html=1;" parent="XqH-Hx1yyQKgfLsYY9-W-40" vertex="1">
          <mxGeometry y="120" width="180" height="30" as="geometry" />
        </mxCell>
        <mxCell id="XqH-Hx1yyQKgfLsYY9-W-45" value="yeux" style="text;strokeColor=none;fillColor=none;align=left;verticalAlign=middle;spacingLeft=4;spacingRight=4;overflow=hidden;points=[[0,0.5],[1,0.5]];portConstraint=eastwest;rotatable=0;whiteSpace=wrap;html=1;" parent="XqH-Hx1yyQKgfLsYY9-W-40" vertex="1">
          <mxGeometry y="150" width="180" height="30" as="geometry" />
        </mxCell>
        <mxCell id="XqH-Hx1yyQKgfLsYY9-W-46" value="menace" style="swimlane;fontStyle=0;childLayout=stackLayout;horizontal=1;startSize=30;horizontalStack=0;resizeParent=1;resizeParentMax=0;resizeLast=0;collapsible=1;marginBottom=0;whiteSpace=wrap;html=1;fillColor=#6d8764;strokeColor=#3A5431;swimlaneFillColor=none;fontColor=#ffffff;" parent="WIyWlLk6GJQsqaUBKTNV-1" vertex="1">
          <mxGeometry x="584" y="-381" width="180" height="120" as="geometry" />
        </mxCell>
        <mxCell id="XqH-Hx1yyQKgfLsYY9-W-47" value="id" style="text;align=left;verticalAlign=middle;spacingLeft=4;spacingRight=4;overflow=hidden;points=[[0,0.5],[1,0.5]];portConstraint=eastwest;rotatable=0;whiteSpace=wrap;html=1;" parent="XqH-Hx1yyQKgfLsYY9-W-46" vertex="1">
          <mxGeometry y="30" width="180" height="30" as="geometry" />
        </mxCell>
        <mxCell id="XqH-Hx1yyQKgfLsYY9-W-48" value="predateurs" style="text;strokeColor=none;fillColor=none;align=left;verticalAlign=middle;spacingLeft=4;spacingRight=4;overflow=hidden;points=[[0,0.5],[1,0.5]];portConstraint=eastwest;rotatable=0;whiteSpace=wrap;html=1;" parent="XqH-Hx1yyQKgfLsYY9-W-46" vertex="1">
          <mxGeometry y="60" width="180" height="30" as="geometry" />
        </mxCell>
        <mxCell id="XqH-Hx1yyQKgfLsYY9-W-49" value="problemes_environnementaux" style="text;strokeColor=none;fillColor=none;align=left;verticalAlign=middle;spacingLeft=4;spacingRight=4;overflow=hidden;points=[[0,0.5],[1,0.5]];portConstraint=eastwest;rotatable=0;horizontal=1;textShadow=0;whiteSpace=wrap;html=1;" parent="XqH-Hx1yyQKgfLsYY9-W-46" vertex="1">
          <mxGeometry y="90" width="180" height="30" as="geometry" />
        </mxCell>
        <mxCell id="XqH-Hx1yyQKgfLsYY9-W-52" value="comportement" style="swimlane;fontStyle=0;childLayout=stackLayout;horizontal=1;startSize=30;horizontalStack=0;resizeParent=1;resizeParentMax=0;resizeLast=0;collapsible=1;marginBottom=0;whiteSpace=wrap;html=1;fillColor=#6d8764;strokeColor=#3A5431;swimlaneFillColor=none;fontColor=#ffffff;" parent="WIyWlLk6GJQsqaUBKTNV-1" vertex="1">
          <mxGeometry x="584" y="-250" width="180" height="120" as="geometry" />
        </mxCell>
        <mxCell id="XqH-Hx1yyQKgfLsYY9-W-53" value="id" style="text;align=left;verticalAlign=middle;spacingLeft=4;spacingRight=4;overflow=hidden;points=[[0,0.5],[1,0.5]];portConstraint=eastwest;rotatable=0;whiteSpace=wrap;html=1;" parent="XqH-Hx1yyQKgfLsYY9-W-52" vertex="1">
          <mxGeometry y="30" width="180" height="30" as="geometry" />
        </mxCell>
        <mxCell id="XqH-Hx1yyQKgfLsYY9-W-54" value="migration" style="text;strokeColor=none;fillColor=none;align=left;verticalAlign=middle;spacingLeft=4;spacingRight=4;overflow=hidden;points=[[0,0.5],[1,0.5]];portConstraint=eastwest;rotatable=0;whiteSpace=wrap;html=1;" parent="XqH-Hx1yyQKgfLsYY9-W-52" vertex="1">
          <mxGeometry y="60" width="180" height="30" as="geometry" />
        </mxCell>
        <mxCell id="XqH-Hx1yyQKgfLsYY9-W-55" value="hibernation" style="text;strokeColor=none;fillColor=none;align=left;verticalAlign=middle;spacingLeft=4;spacingRight=4;overflow=hidden;points=[[0,0.5],[1,0.5]];portConstraint=eastwest;rotatable=0;whiteSpace=wrap;html=1;" parent="XqH-Hx1yyQKgfLsYY9-W-52" vertex="1">
          <mxGeometry y="90" width="180" height="30" as="geometry" />
        </mxCell>
        <mxCell id="XqH-Hx1yyQKgfLsYY9-W-56" value="interet_humain" style="swimlane;fontStyle=0;childLayout=stackLayout;horizontal=1;startSize=30;horizontalStack=0;resizeParent=1;resizeParentMax=0;resizeLast=0;collapsible=1;marginBottom=0;whiteSpace=wrap;html=1;fillColor=#6d8764;strokeColor=#3A5431;swimlaneFillColor=none;fontColor=#ffffff;" parent="WIyWlLk6GJQsqaUBKTNV-1" vertex="1">
          <mxGeometry x="584" y="-120" width="180" height="120" as="geometry" />
        </mxCell>
        <mxCell id="XqH-Hx1yyQKgfLsYY9-W-57" value="id" style="text;align=left;verticalAlign=middle;spacingLeft=4;spacingRight=4;overflow=hidden;points=[[0,0.5],[1,0.5]];portConstraint=eastwest;rotatable=0;whiteSpace=wrap;html=1;" parent="XqH-Hx1yyQKgfLsYY9-W-56" vertex="1">
          <mxGeometry y="30" width="180" height="30" as="geometry" />
        </mxCell>
        <mxCell id="XqH-Hx1yyQKgfLsYY9-W-58" value="utilite" style="text;strokeColor=none;fillColor=none;align=left;verticalAlign=middle;spacingLeft=4;spacingRight=4;overflow=hidden;points=[[0,0.5],[1,0.5]];portConstraint=eastwest;rotatable=0;whiteSpace=wrap;html=1;" parent="XqH-Hx1yyQKgfLsYY9-W-56" vertex="1">
          <mxGeometry y="60" width="180" height="30" as="geometry" />
        </mxCell>
        <mxCell id="XqH-Hx1yyQKgfLsYY9-W-59" value="symbolisme" style="text;strokeColor=none;fillColor=none;align=left;verticalAlign=middle;spacingLeft=4;spacingRight=4;overflow=hidden;points=[[0,0.5],[1,0.5]];portConstraint=eastwest;rotatable=0;whiteSpace=wrap;html=1;" parent="XqH-Hx1yyQKgfLsYY9-W-56" vertex="1">
          <mxGeometry y="90" width="180" height="30" as="geometry" />
        </mxCell>
        <mxCell id="XqH-Hx1yyQKgfLsYY9-W-60" value="" style="endArrow=none;html=1;rounded=0;entryX=0;entryY=0.25;entryDx=0;entryDy=0;" parent="WIyWlLk6GJQsqaUBKTNV-1" source="X2YAub8K0fAlj21YiTJj-38" target="ZL7UbD4Tm4_8qg5YTsZL-42" edge="1">
          <mxGeometry width="50" height="50" relative="1" as="geometry">
            <mxPoint x="34.000000000000455" y="-439" as="sourcePoint" />
            <mxPoint x="-266" y="-289" as="targetPoint" />
          </mxGeometry>
        </mxCell>
        <mxCell id="XqH-Hx1yyQKgfLsYY9-W-61" value="" style="endArrow=none;html=1;rounded=0;exitX=0;exitY=0.25;exitDx=0;exitDy=0;" parent="WIyWlLk6GJQsqaUBKTNV-1" source="X2YAub8K0fAlj21YiTJj-34" target="XqH-Hx1yyQKgfLsYY9-W-12" edge="1">
          <mxGeometry width="50" height="50" relative="1" as="geometry">
            <mxPoint x="-306" y="-439" as="sourcePoint" />
            <mxPoint x="34.000000000000455" y="-439" as="targetPoint" />
          </mxGeometry>
        </mxCell>
        <mxCell id="XqH-Hx1yyQKgfLsYY9-W-62" value="" style="endArrow=none;html=1;rounded=0;exitX=0;exitY=0.25;exitDx=0;exitDy=0;" parent="WIyWlLk6GJQsqaUBKTNV-1" source="X2YAub8K0fAlj21YiTJj-37" target="XqH-Hx1yyQKgfLsYY9-W-12" edge="1">
          <mxGeometry width="50" height="50" relative="1" as="geometry">
            <mxPoint x="-296" y="-359" as="sourcePoint" />
            <mxPoint x="34.000000000000455" y="-439" as="targetPoint" />
          </mxGeometry>
        </mxCell>
        <mxCell id="XqH-Hx1yyQKgfLsYY9-W-63" value="" style="endArrow=none;html=1;rounded=0;" parent="WIyWlLk6GJQsqaUBKTNV-1" source="X2YAub8K0fAlj21YiTJj-2" target="XqH-Hx1yyQKgfLsYY9-W-8" edge="1">
          <mxGeometry width="50" height="50" relative="1" as="geometry">
            <mxPoint x="14" y="-668.26" as="sourcePoint" />
            <mxPoint x="323.5" y="-809" as="targetPoint" />
          </mxGeometry>
        </mxCell>
        <mxCell id="XqH-Hx1yyQKgfLsYY9-W-67" value="" style="endArrow=none;html=1;rounded=0;exitX=0;exitY=0.25;exitDx=0;exitDy=0;" parent="WIyWlLk6GJQsqaUBKTNV-1" source="X2YAub8K0fAlj21YiTJj-19" target="XqH-Hx1yyQKgfLsYY9-W-12" edge="1">
          <mxGeometry width="50" height="50" relative="1" as="geometry">
            <mxPoint x="-296" y="-783.9988372093026" as="sourcePoint" />
            <mxPoint x="34.000000000000455" y="-439" as="targetPoint" />
          </mxGeometry>
        </mxCell>
        <mxCell id="XqH-Hx1yyQKgfLsYY9-W-68" value="" style="endArrow=none;html=1;rounded=0;exitX=0;exitY=0.5;exitDx=0;exitDy=0;entryX=1;entryY=0.25;entryDx=0;entryDy=0;" parent="WIyWlLk6GJQsqaUBKTNV-1" source="X2YAub8K0fAlj21YiTJj-15" target="ZL7UbD4Tm4_8qg5YTsZL-4" edge="1">
          <mxGeometry width="50" height="50" relative="1" as="geometry">
            <mxPoint x="-303.25" y="-801.173913043478" as="sourcePoint" />
            <mxPoint x="506.75" y="-569" as="targetPoint" />
          </mxGeometry>
        </mxCell>
        <mxCell id="XqH-Hx1yyQKgfLsYY9-W-70" value="" style="endArrow=none;html=1;rounded=0;exitX=0;exitY=0.5;exitDx=0;exitDy=0;" parent="WIyWlLk6GJQsqaUBKTNV-1" source="X2YAub8K0fAlj21YiTJj-4" target="XqH-Hx1yyQKgfLsYY9-W-8" edge="1">
          <mxGeometry width="50" height="50" relative="1" as="geometry">
            <mxPoint x="583.5" y="-938.85" as="sourcePoint" />
            <mxPoint x="503.5" y="-839" as="targetPoint" />
          </mxGeometry>
        </mxCell>
        <mxCell id="ZL7UbD4Tm4_8qg5YTsZL-4" value="habite&lt;div&gt;être habité&lt;/div&gt;" style="swimlane;fontStyle=0;childLayout=stackLayout;horizontal=1;startSize=30;horizontalStack=0;resizeParent=1;resizeParentMax=0;resizeLast=0;collapsible=1;marginBottom=0;whiteSpace=wrap;html=1;fillColor=#cdeb8b;strokeColor=#36393d;swimlaneFillColor=none;rounded=1;sketch=1;curveFitting=1;jiggle=2;glass=1;" parent="WIyWlLk6GJQsqaUBKTNV-1" vertex="1">
          <mxGeometry x="324" y="-679" width="180" height="60" as="geometry" />
        </mxCell>
        <mxCell id="ZL7UbD4Tm4_8qg5YTsZL-9" value="" style="endArrow=none;html=1;rounded=0;exitX=0;exitY=0.25;exitDx=0;exitDy=0;" parent="WIyWlLk6GJQsqaUBKTNV-1" source="X2YAub8K0fAlj21YiTJj-10" target="XqH-Hx1yyQKgfLsYY9-W-12" edge="1">
          <mxGeometry width="50" height="50" relative="1" as="geometry">
            <mxPoint x="-496" y="-904.4300000000001" as="sourcePoint" />
            <mxPoint x="34.000000000000455" y="-439" as="targetPoint" />
          </mxGeometry>
        </mxCell>
        <mxCell id="ZL7UbD4Tm4_8qg5YTsZL-28" value="caractérise&lt;div&gt;être caractérisé&lt;/div&gt;" style="swimlane;fontStyle=0;childLayout=stackLayout;horizontal=1;startSize=30;horizontalStack=0;resizeParent=1;resizeParentMax=0;resizeLast=0;collapsible=1;marginBottom=0;whiteSpace=wrap;html=1;fillColor=#cdeb8b;strokeColor=#36393d;swimlaneFillColor=none;rounded=1;sketch=1;curveFitting=1;jiggle=2;glass=1;" parent="WIyWlLk6GJQsqaUBKTNV-1" vertex="1">
          <mxGeometry x="324" y="-579" width="180" height="60" as="geometry" />
        </mxCell>
        <mxCell id="ZL7UbD4Tm4_8qg5YTsZL-29" value="" style="endArrow=none;html=1;rounded=0;entryX=1;entryY=0.25;entryDx=0;entryDy=0;exitX=0;exitY=0.5;exitDx=0;exitDy=0;" parent="WIyWlLk6GJQsqaUBKTNV-1" source="X2YAub8K0fAlj21YiTJj-30" target="ZL7UbD4Tm4_8qg5YTsZL-28" edge="1">
          <mxGeometry width="50" height="50" relative="1" as="geometry">
            <mxPoint x="604" y="-249" as="sourcePoint" />
            <mxPoint x="586.75" y="-279" as="targetPoint" />
          </mxGeometry>
        </mxCell>
        <mxCell id="ZL7UbD4Tm4_8qg5YTsZL-36" value="engendre&lt;div&gt;être engendré&lt;/div&gt;" style="swimlane;fontStyle=0;childLayout=stackLayout;horizontal=1;startSize=30;horizontalStack=0;resizeParent=1;resizeParentMax=0;resizeLast=0;collapsible=1;marginBottom=0;whiteSpace=wrap;html=1;fillColor=#cdeb8b;strokeColor=#36393d;swimlaneFillColor=none;rounded=1;sketch=1;curveFitting=1;jiggle=2;glass=1;" parent="WIyWlLk6GJQsqaUBKTNV-1" vertex="1">
          <mxGeometry x="324" y="-479" width="180" height="60" as="geometry" />
        </mxCell>
        <mxCell id="ZL7UbD4Tm4_8qg5YTsZL-39" value="compose&lt;div&gt;être composé&lt;/div&gt;" style="swimlane;fontStyle=0;childLayout=stackLayout;horizontal=1;startSize=30;horizontalStack=0;resizeParent=1;resizeParentMax=0;resizeLast=0;collapsible=1;marginBottom=0;whiteSpace=wrap;html=1;fillColor=#cdeb8b;strokeColor=#36393d;swimlaneFillColor=none;rounded=1;sketch=1;curveFitting=1;jiggle=2;glass=1;" parent="WIyWlLk6GJQsqaUBKTNV-1" vertex="1">
          <mxGeometry x="324" y="-380" width="180" height="60" as="geometry" />
        </mxCell>
        <mxCell id="ZL7UbD4Tm4_8qg5YTsZL-42" value="crée&lt;div&gt;être créé&lt;/div&gt;" style="swimlane;fontStyle=0;childLayout=stackLayout;horizontal=1;startSize=30;horizontalStack=0;resizeParent=1;resizeParentMax=0;resizeLast=0;collapsible=1;marginBottom=0;whiteSpace=wrap;html=1;fillColor=#cdeb8b;strokeColor=#36393d;swimlaneFillColor=none;rounded=1;sketch=1;curveFitting=1;jiggle=2;glass=1;" parent="WIyWlLk6GJQsqaUBKTNV-1" vertex="1">
          <mxGeometry x="324" y="-285" width="180" height="60" as="geometry" />
        </mxCell>
        <mxCell id="ZL7UbD4Tm4_8qg5YTsZL-45" value="" style="endArrow=none;html=1;rounded=0;entryX=1;entryY=0.25;entryDx=0;entryDy=0;exitX=0;exitY=0.5;exitDx=0;exitDy=0;" parent="WIyWlLk6GJQsqaUBKTNV-1" source="X2YAub8K0fAlj21YiTJj-31" target="ZL7UbD4Tm4_8qg5YTsZL-36" edge="1">
          <mxGeometry width="50" height="50" relative="1" as="geometry">
            <mxPoint x="-683.25" y="-379" as="sourcePoint" />
            <mxPoint x="-613.25" y="-269" as="targetPoint" />
          </mxGeometry>
        </mxCell>
        <mxCell id="ZL7UbD4Tm4_8qg5YTsZL-46" value="" style="endArrow=none;html=1;rounded=0;entryX=1;entryY=0.25;entryDx=0;entryDy=0;exitX=0;exitY=0.5;exitDx=0;exitDy=0;" parent="WIyWlLk6GJQsqaUBKTNV-1" source="X2YAub8K0fAlj21YiTJj-32" target="ZL7UbD4Tm4_8qg5YTsZL-39" edge="1">
          <mxGeometry width="50" height="50" relative="1" as="geometry">
            <mxPoint x="-723.25" y="-209" as="sourcePoint" />
            <mxPoint x="-613.25" y="-169" as="targetPoint" />
          </mxGeometry>
        </mxCell>
        <mxCell id="ZL7UbD4Tm4_8qg5YTsZL-47" value="" style="endArrow=none;html=1;rounded=0;entryX=1;entryY=0.25;entryDx=0;entryDy=0;exitX=0;exitY=0.5;exitDx=0;exitDy=0;" parent="WIyWlLk6GJQsqaUBKTNV-1" source="X2YAub8K0fAlj21YiTJj-33" target="ZL7UbD4Tm4_8qg5YTsZL-42" edge="1">
          <mxGeometry width="50" height="50" relative="1" as="geometry">
            <mxPoint x="-683.25" y="31" as="sourcePoint" />
            <mxPoint x="-613.25" y="-49" as="targetPoint" />
          </mxGeometry>
        </mxCell>
        <mxCell id="sh5u0eZ9CUBRLmIqrZn7-30" value="obs__photo" style="swimlane;fontStyle=0;childLayout=stackLayout;horizontal=1;startSize=30;horizontalStack=0;resizeParent=1;resizeParentMax=0;resizeLast=0;collapsible=1;marginBottom=0;whiteSpace=wrap;html=1;fillColor=#6d8764;strokeColor=#3A5431;swimlaneFillColor=none;fontColor=#ffffff;" parent="WIyWlLk6GJQsqaUBKTNV-1" vertex="1">
          <mxGeometry x="584" y="-1169" width="180" height="90" as="geometry" />
        </mxCell>
        <mxCell id="sh5u0eZ9CUBRLmIqrZn7-31" value="id" style="text;align=left;verticalAlign=middle;spacingLeft=4;spacingRight=4;overflow=hidden;points=[[0,0.5],[1,0.5]];portConstraint=eastwest;rotatable=0;whiteSpace=wrap;html=1;" parent="sh5u0eZ9CUBRLmIqrZn7-30" vertex="1">
          <mxGeometry y="30" width="180" height="30" as="geometry" />
        </mxCell>
        <mxCell id="sh5u0eZ9CUBRLmIqrZn7-32" value="uuid" style="text;strokeColor=none;fillColor=none;align=left;verticalAlign=middle;spacingLeft=4;spacingRight=4;overflow=hidden;points=[[0,0.5],[1,0.5]];portConstraint=eastwest;rotatable=0;whiteSpace=wrap;html=1;" parent="sh5u0eZ9CUBRLmIqrZn7-30" vertex="1">
          <mxGeometry y="60" width="180" height="30" as="geometry" />
        </mxCell>
        <mxCell id="sh5u0eZ9CUBRLmIqrZn7-38" value="" style="endArrow=none;html=1;rounded=0;exitX=0;exitY=0.25;exitDx=0;exitDy=0;" parent="WIyWlLk6GJQsqaUBKTNV-1" source="sh5u0eZ9CUBRLmIqrZn7-37" target="XqH-Hx1yyQKgfLsYY9-W-8" edge="1">
          <mxGeometry width="50" height="50" relative="1" as="geometry">
            <mxPoint x="594" y="-1359" as="sourcePoint" />
            <mxPoint x="524" y="-1139" as="targetPoint" />
          </mxGeometry>
        </mxCell>
        <mxCell id="sh5u0eZ9CUBRLmIqrZn7-40" value="&lt;div&gt;possède&lt;/div&gt;&lt;div&gt;être possédé&lt;/div&gt;" style="swimlane;fontStyle=0;childLayout=stackLayout;horizontal=1;startSize=30;horizontalStack=0;resizeParent=1;resizeParentMax=0;resizeLast=0;collapsible=1;marginBottom=0;whiteSpace=wrap;html=1;fillColor=#cdeb8b;strokeColor=#36393d;swimlaneFillColor=none;rounded=1;shadow=0;sketch=1;curveFitting=1;jiggle=2;glass=1;gradientColor=none;" parent="WIyWlLk6GJQsqaUBKTNV-1" vertex="1">
          <mxGeometry x="584" y="-1010" width="180" height="60" as="geometry" />
        </mxCell>
        <mxCell id="sh5u0eZ9CUBRLmIqrZn7-43" value="" style="endArrow=none;html=1;rounded=0;" parent="WIyWlLk6GJQsqaUBKTNV-1" source="sh5u0eZ9CUBRLmIqrZn7-44" target="sh5u0eZ9CUBRLmIqrZn7-40" edge="1">
          <mxGeometry width="50" height="50" relative="1" as="geometry">
            <mxPoint x="674" y="-1000.5" as="sourcePoint" />
            <mxPoint x="754.5" y="-1129.5" as="targetPoint" />
          </mxGeometry>
        </mxCell>
        <mxCell id="OuXkJRCwFxnnpVLkt0-F-1" value="" style="endArrow=none;html=1;rounded=0;entryX=1;entryY=0.25;entryDx=0;entryDy=0;" parent="WIyWlLk6GJQsqaUBKTNV-1" source="XqH-Hx1yyQKgfLsYY9-W-56" target="X2YAub8K0fAlj21YiTJj-33" edge="1">
          <mxGeometry width="50" height="50" relative="1" as="geometry">
            <mxPoint x="584" y="-49" as="sourcePoint" />
            <mxPoint x="504" y="-229" as="targetPoint" />
          </mxGeometry>
        </mxCell>
        <mxCell id="X2YAub8K0fAlj21YiTJj-33" value="0,N" style="text;html=1;align=center;verticalAlign=middle;whiteSpace=wrap;rounded=0;fontStyle=1;fillColor=#f9f7ed;strokeColor=#36393d;glass=1;shadow=1;" parent="WIyWlLk6GJQsqaUBKTNV-1" vertex="1">
          <mxGeometry x="529" y="-120" width="30" height="30" as="geometry" />
        </mxCell>
        <mxCell id="OuXkJRCwFxnnpVLkt0-F-2" value="" style="endArrow=none;html=1;rounded=0;entryX=1;entryY=0.25;entryDx=0;entryDy=0;" parent="WIyWlLk6GJQsqaUBKTNV-1" source="XqH-Hx1yyQKgfLsYY9-W-52" target="X2YAub8K0fAlj21YiTJj-32" edge="1">
          <mxGeometry width="50" height="50" relative="1" as="geometry">
            <mxPoint x="584" y="-189" as="sourcePoint" />
            <mxPoint x="504" y="-319" as="targetPoint" />
          </mxGeometry>
        </mxCell>
        <mxCell id="X2YAub8K0fAlj21YiTJj-32" value="0,N" style="text;html=1;align=center;verticalAlign=middle;whiteSpace=wrap;rounded=0;fontStyle=1;fillColor=#f9f7ed;strokeColor=#36393d;glass=1;shadow=1;" parent="WIyWlLk6GJQsqaUBKTNV-1" vertex="1">
          <mxGeometry x="529" y="-250" width="30" height="30" as="geometry" />
        </mxCell>
        <mxCell id="OuXkJRCwFxnnpVLkt0-F-3" value="" style="endArrow=none;html=1;rounded=0;entryX=1;entryY=0.25;entryDx=0;entryDy=0;" parent="WIyWlLk6GJQsqaUBKTNV-1" source="XqH-Hx1yyQKgfLsYY9-W-46" target="X2YAub8K0fAlj21YiTJj-31" edge="1">
          <mxGeometry width="50" height="50" relative="1" as="geometry">
            <mxPoint x="584" y="-329" as="sourcePoint" />
            <mxPoint x="504" y="-409" as="targetPoint" />
          </mxGeometry>
        </mxCell>
        <mxCell id="X2YAub8K0fAlj21YiTJj-31" value="0,N" style="text;html=1;align=center;verticalAlign=middle;whiteSpace=wrap;rounded=0;fontStyle=1;fillColor=#f9f7ed;strokeColor=#36393d;glass=1;shadow=1;" parent="WIyWlLk6GJQsqaUBKTNV-1" vertex="1">
          <mxGeometry x="529" y="-381" width="30" height="30" as="geometry" />
        </mxCell>
        <mxCell id="OuXkJRCwFxnnpVLkt0-F-4" value="" style="endArrow=none;html=1;rounded=0;entryX=1;entryY=0.25;entryDx=0;entryDy=0;" parent="WIyWlLk6GJQsqaUBKTNV-1" source="XqH-Hx1yyQKgfLsYY9-W-40" target="X2YAub8K0fAlj21YiTJj-30" edge="1">
          <mxGeometry width="50" height="50" relative="1" as="geometry">
            <mxPoint x="584" y="-529" as="sourcePoint" />
            <mxPoint x="504" y="-499" as="targetPoint" />
          </mxGeometry>
        </mxCell>
        <mxCell id="X2YAub8K0fAlj21YiTJj-30" value="0,N" style="text;html=1;align=center;verticalAlign=middle;whiteSpace=wrap;rounded=0;fontStyle=1;fillColor=#f9f7ed;strokeColor=#36393d;glass=1;shadow=1;" parent="WIyWlLk6GJQsqaUBKTNV-1" vertex="1">
          <mxGeometry x="529" y="-570" width="30" height="30" as="geometry" />
        </mxCell>
        <mxCell id="OuXkJRCwFxnnpVLkt0-F-5" value="" style="endArrow=none;html=1;rounded=0;entryX=1;entryY=0.25;entryDx=0;entryDy=0;" parent="WIyWlLk6GJQsqaUBKTNV-1" source="XqH-Hx1yyQKgfLsYY9-W-30" target="X2YAub8K0fAlj21YiTJj-15" edge="1">
          <mxGeometry width="50" height="50" relative="1" as="geometry">
            <mxPoint x="584" y="-669" as="sourcePoint" />
            <mxPoint x="504" y="-589" as="targetPoint" />
          </mxGeometry>
        </mxCell>
        <mxCell id="X2YAub8K0fAlj21YiTJj-15" value="0,N" style="text;html=1;align=center;verticalAlign=middle;whiteSpace=wrap;rounded=0;fontStyle=1;fillColor=#f9f7ed;strokeColor=#36393d;glass=1;shadow=1;" parent="WIyWlLk6GJQsqaUBKTNV-1" vertex="1">
          <mxGeometry x="529" y="-701" width="30" height="30" as="geometry" />
        </mxCell>
        <mxCell id="OuXkJRCwFxnnpVLkt0-F-6" value="" style="endArrow=none;html=1;rounded=0;entryX=0;entryY=0.25;entryDx=0;entryDy=0;" parent="WIyWlLk6GJQsqaUBKTNV-1" source="XqH-Hx1yyQKgfLsYY9-W-12" target="X2YAub8K0fAlj21YiTJj-38" edge="1">
          <mxGeometry width="50" height="50" relative="1" as="geometry">
            <mxPoint x="242" y="-429" as="sourcePoint" />
            <mxPoint x="324" y="-234" as="targetPoint" />
          </mxGeometry>
        </mxCell>
        <mxCell id="X2YAub8K0fAlj21YiTJj-38" value="1,1" style="text;html=1;align=center;verticalAlign=middle;whiteSpace=wrap;rounded=0;fontStyle=1;fillColor=#f9f7ed;strokeColor=#36393d;rotation=0;glass=1;shadow=1;" parent="WIyWlLk6GJQsqaUBKTNV-1" vertex="1">
          <mxGeometry x="270" y="-285" width="30" height="30" as="geometry" />
        </mxCell>
        <mxCell id="OuXkJRCwFxnnpVLkt0-F-7" value="" style="endArrow=none;html=1;rounded=0;exitX=0;exitY=0.25;exitDx=0;exitDy=0;" parent="WIyWlLk6GJQsqaUBKTNV-1" source="ZL7UbD4Tm4_8qg5YTsZL-39" target="X2YAub8K0fAlj21YiTJj-37" edge="1">
          <mxGeometry width="50" height="50" relative="1" as="geometry">
            <mxPoint x="324" y="-324" as="sourcePoint" />
            <mxPoint x="244" y="-472" as="targetPoint" />
          </mxGeometry>
        </mxCell>
        <mxCell id="X2YAub8K0fAlj21YiTJj-37" value="1,1" style="text;html=1;align=center;verticalAlign=middle;whiteSpace=wrap;rounded=0;fontStyle=1;fillColor=#f9f7ed;strokeColor=#36393d;rotation=0;glass=1;shadow=1;" parent="WIyWlLk6GJQsqaUBKTNV-1" vertex="1">
          <mxGeometry x="270" y="-380" width="30" height="30" as="geometry" />
        </mxCell>
        <mxCell id="OuXkJRCwFxnnpVLkt0-F-8" value="" style="endArrow=none;html=1;rounded=0;exitX=0;exitY=0.25;exitDx=0;exitDy=0;" parent="WIyWlLk6GJQsqaUBKTNV-1" source="ZL7UbD4Tm4_8qg5YTsZL-36" target="X2YAub8K0fAlj21YiTJj-34" edge="1">
          <mxGeometry width="50" height="50" relative="1" as="geometry">
            <mxPoint x="324" y="-414" as="sourcePoint" />
            <mxPoint x="244" y="-520" as="targetPoint" />
          </mxGeometry>
        </mxCell>
        <mxCell id="X2YAub8K0fAlj21YiTJj-34" value="1,1" style="text;html=1;align=center;verticalAlign=middle;whiteSpace=wrap;rounded=0;fontStyle=1;fillColor=#f9f7ed;strokeColor=#36393d;rotation=0;glass=1;shadow=1;" parent="WIyWlLk6GJQsqaUBKTNV-1" vertex="1">
          <mxGeometry x="270" y="-479" width="30" height="30" as="geometry" />
        </mxCell>
        <mxCell id="OuXkJRCwFxnnpVLkt0-F-9" value="" style="endArrow=none;html=1;rounded=0;exitX=0;exitY=0.25;exitDx=0;exitDy=0;" parent="WIyWlLk6GJQsqaUBKTNV-1" source="ZL7UbD4Tm4_8qg5YTsZL-28" target="X2YAub8K0fAlj21YiTJj-19" edge="1">
          <mxGeometry width="50" height="50" relative="1" as="geometry">
            <mxPoint x="324" y="-504" as="sourcePoint" />
            <mxPoint x="244" y="-567" as="targetPoint" />
          </mxGeometry>
        </mxCell>
        <mxCell id="X2YAub8K0fAlj21YiTJj-19" value="1,1" style="text;html=1;align=center;verticalAlign=middle;whiteSpace=wrap;rounded=0;fontStyle=1;fillColor=#f9f7ed;strokeColor=#36393d;rotation=0;glass=1;shadow=1;" parent="WIyWlLk6GJQsqaUBKTNV-1" vertex="1">
          <mxGeometry x="270" y="-579" width="30" height="30" as="geometry" />
        </mxCell>
        <mxCell id="OuXkJRCwFxnnpVLkt0-F-10" value="" style="endArrow=none;html=1;rounded=0;exitX=0;exitY=0.25;exitDx=0;exitDy=0;" parent="WIyWlLk6GJQsqaUBKTNV-1" source="ZL7UbD4Tm4_8qg5YTsZL-4" target="X2YAub8K0fAlj21YiTJj-10" edge="1">
          <mxGeometry width="50" height="50" relative="1" as="geometry">
            <mxPoint x="324" y="-594" as="sourcePoint" />
            <mxPoint x="244" y="-615" as="targetPoint" />
          </mxGeometry>
        </mxCell>
        <mxCell id="X2YAub8K0fAlj21YiTJj-10" value="1,1" style="text;html=1;align=center;verticalAlign=middle;whiteSpace=wrap;rounded=0;fontStyle=1;fillColor=#f9f7ed;strokeColor=#36393d;rotation=0;glass=1;shadow=1;" parent="WIyWlLk6GJQsqaUBKTNV-1" vertex="1">
          <mxGeometry x="270" y="-680" width="30" height="30" as="geometry" />
        </mxCell>
        <mxCell id="OuXkJRCwFxnnpVLkt0-F-11" value="" style="endArrow=none;html=1;rounded=0;" parent="WIyWlLk6GJQsqaUBKTNV-1" source="XqH-Hx1yyQKgfLsYY9-W-12" target="X2YAub8K0fAlj21YiTJj-2" edge="1">
          <mxGeometry width="50" height="50" relative="1" as="geometry">
            <mxPoint x="244" y="-706" as="sourcePoint" />
            <mxPoint x="324" y="-765" as="targetPoint" />
          </mxGeometry>
        </mxCell>
        <mxCell id="X2YAub8K0fAlj21YiTJj-2" value="1,N" style="text;html=1;align=center;verticalAlign=middle;whiteSpace=wrap;rounded=0;fontStyle=1;fillColor=#f9f7ed;strokeColor=#36393d;glass=1;shadow=1;" parent="WIyWlLk6GJQsqaUBKTNV-1" vertex="1">
          <mxGeometry x="270" y="-849" width="30" height="30" as="geometry" />
        </mxCell>
        <mxCell id="OuXkJRCwFxnnpVLkt0-F-12" value="" style="endArrow=none;html=1;rounded=0;" parent="WIyWlLk6GJQsqaUBKTNV-1" source="XqH-Hx1yyQKgfLsYY9-W-4" target="X2YAub8K0fAlj21YiTJj-4" edge="1">
          <mxGeometry width="50" height="50" relative="1" as="geometry">
            <mxPoint x="584" y="-899" as="sourcePoint" />
            <mxPoint x="503" y="-865" as="targetPoint" />
          </mxGeometry>
        </mxCell>
        <mxCell id="X2YAub8K0fAlj21YiTJj-4" value="0,N" style="text;html=1;align=center;verticalAlign=middle;whiteSpace=wrap;rounded=0;fontStyle=1;fillColor=#f9f7ed;strokeColor=#36393d;glass=1;shadow=1;" parent="WIyWlLk6GJQsqaUBKTNV-1" vertex="1">
          <mxGeometry x="529" y="-920" width="30" height="30" as="geometry" />
        </mxCell>
        <mxCell id="OuXkJRCwFxnnpVLkt0-F-13" value="" style="endArrow=none;html=1;rounded=0;" parent="WIyWlLk6GJQsqaUBKTNV-1" source="sh5u0eZ9CUBRLmIqrZn7-30" target="sh5u0eZ9CUBRLmIqrZn7-44" edge="1">
          <mxGeometry width="50" height="50" relative="1" as="geometry">
            <mxPoint x="674" y="-1054" as="sourcePoint" />
            <mxPoint x="674" y="-1014" as="targetPoint" />
          </mxGeometry>
        </mxCell>
        <mxCell id="sh5u0eZ9CUBRLmIqrZn7-44" value="1,1" style="text;html=1;align=center;verticalAlign=middle;whiteSpace=wrap;rounded=0;fontStyle=1;fillColor=#f9f7ed;strokeColor=#36393d;glass=1;shadow=1;" parent="WIyWlLk6GJQsqaUBKTNV-1" vertex="1">
          <mxGeometry x="659" y="-1060" width="30" height="30" as="geometry" />
        </mxCell>
        <mxCell id="OuXkJRCwFxnnpVLkt0-F-14" value="" style="endArrow=none;html=1;rounded=0;" parent="WIyWlLk6GJQsqaUBKTNV-1" source="sh5u0eZ9CUBRLmIqrZn7-40" target="sh5u0eZ9CUBRLmIqrZn7-37" edge="1">
          <mxGeometry width="50" height="50" relative="1" as="geometry">
            <mxPoint x="584" y="-1009" as="sourcePoint" />
            <mxPoint x="504" y="-923" as="targetPoint" />
          </mxGeometry>
        </mxCell>
        <mxCell id="sh5u0eZ9CUBRLmIqrZn7-37" value="0,N" style="text;html=1;align=center;verticalAlign=middle;whiteSpace=wrap;rounded=0;fontStyle=1;fillColor=#f9f7ed;strokeColor=#36393d;glass=1;shadow=1;" parent="WIyWlLk6GJQsqaUBKTNV-1" vertex="1">
          <mxGeometry x="529" y="-1010" width="30" height="30" as="geometry" />
        </mxCell>
        <mxCell id="K2McwMx9IsrqPSKE5Rh8-0" value="obs__organisme_proche" style="swimlane;fontStyle=0;childLayout=stackLayout;horizontal=1;startSize=30;horizontalStack=0;resizeParent=1;resizeParentMax=0;resizeLast=0;collapsible=1;marginBottom=0;whiteSpace=wrap;html=1;fillColor=#cdeb8b;strokeColor=#36393d;swimlaneFillColor=none;rounded=1;glass=1;sketch=1;curveFitting=1;jiggle=2;" parent="WIyWlLk6GJQsqaUBKTNV-1" vertex="1">
          <mxGeometry x="64" y="-1154" width="180" height="60" as="geometry" />
        </mxCell>
        <mxCell id="K2McwMx9IsrqPSKE5Rh8-1" value="id" style="text;align=left;verticalAlign=middle;spacingLeft=4;spacingRight=4;overflow=hidden;points=[[0,0.5],[1,0.5]];portConstraint=eastwest;rotatable=0;whiteSpace=wrap;html=1;" parent="K2McwMx9IsrqPSKE5Rh8-0" vertex="1">
          <mxGeometry y="30" width="180" height="30" as="geometry" />
        </mxCell>
        <mxCell id="K2McwMx9IsrqPSKE5Rh8-5" value="0,N" style="text;html=1;align=center;verticalAlign=middle;whiteSpace=wrap;rounded=0;fontStyle=1;fillColor=#f9f7ed;strokeColor=#36393d;glass=1;shadow=1;" parent="WIyWlLk6GJQsqaUBKTNV-1" vertex="1">
          <mxGeometry x="214" y="-989.5" width="30" height="30" as="geometry" />
        </mxCell>
        <mxCell id="K2McwMx9IsrqPSKE5Rh8-6" value="" style="endArrow=none;html=1;rounded=0;" parent="WIyWlLk6GJQsqaUBKTNV-1" source="K2McwMx9IsrqPSKE5Rh8-0" target="K2McwMx9IsrqPSKE5Rh8-5" edge="1">
          <mxGeometry width="50" height="50" relative="1" as="geometry">
            <mxPoint x="244" y="-960.3053435114505" as="sourcePoint" />
            <mxPoint x="270.08" y="-990.03" as="targetPoint" />
          </mxGeometry>
        </mxCell>
        <mxCell id="K2McwMx9IsrqPSKE5Rh8-7" value="" style="endArrow=none;html=1;rounded=0;" parent="WIyWlLk6GJQsqaUBKTNV-1" source="K2McwMx9IsrqPSKE5Rh8-5" target="XqH-Hx1yyQKgfLsYY9-W-8" edge="1">
          <mxGeometry width="50" height="50" relative="1" as="geometry">
            <mxPoint x="260" y="-976.72" as="sourcePoint" />
            <mxPoint x="286" y="-979.72" as="targetPoint" />
          </mxGeometry>
        </mxCell>
        <mxCell id="K2McwMx9IsrqPSKE5Rh8-11" value="0,N" style="text;html=1;align=center;verticalAlign=middle;whiteSpace=wrap;rounded=0;fontStyle=1;fillColor=#f9f7ed;strokeColor=#36393d;glass=1;shadow=1;" parent="WIyWlLk6GJQsqaUBKTNV-1" vertex="1">
          <mxGeometry x="139" y="-989.5" width="30" height="30" as="geometry" />
        </mxCell>
        <mxCell id="K2McwMx9IsrqPSKE5Rh8-12" value="" style="endArrow=none;html=1;rounded=0;" parent="WIyWlLk6GJQsqaUBKTNV-1" source="XqH-Hx1yyQKgfLsYY9-W-12" target="K2McwMx9IsrqPSKE5Rh8-11" edge="1">
          <mxGeometry width="50" height="50" relative="1" as="geometry">
            <mxPoint x="190" y="-854" as="sourcePoint" />
            <mxPoint x="221" y="-900" as="targetPoint" />
          </mxGeometry>
        </mxCell>
        <mxCell id="K2McwMx9IsrqPSKE5Rh8-13" value="" style="endArrow=none;html=1;rounded=0;" parent="WIyWlLk6GJQsqaUBKTNV-1" source="K2McwMx9IsrqPSKE5Rh8-11" target="K2McwMx9IsrqPSKE5Rh8-0" edge="1">
          <mxGeometry width="50" height="50" relative="1" as="geometry">
            <mxPoint x="210" y="-879" as="sourcePoint" />
            <mxPoint x="154" y="-920" as="targetPoint" />
          </mxGeometry>
        </mxCell>
      </root>
    </mxGraphModel>
  </diagram>
  <diagram id="eTQ7PpJtmu0BkTtd3p-H" name="MLD">
    <mxGraphModel dx="3115" dy="1886" grid="1" gridSize="10" guides="1" tooltips="1" connect="1" arrows="1" fold="1" page="1" pageScale="1" pageWidth="1920" pageHeight="1200" math="0" shadow="0">
      <root>
        <mxCell id="0" />
        <mxCell id="1" parent="0" />
        <mxCell id="HDrbAQpTTR-KQfWtHW_W-1" value="utilisateurice" style="swimlane;fontStyle=0;childLayout=stackLayout;horizontal=1;startSize=30;horizontalStack=0;resizeParent=1;resizeParentMax=0;resizeLast=0;collapsible=1;marginBottom=0;whiteSpace=wrap;html=1;fillColor=#6d8764;strokeColor=#3A5431;swimlaneFillColor=none;fontColor=#ffffff;" parent="1" vertex="1">
          <mxGeometry x="480" y="145" width="180" height="180" as="geometry" />
        </mxCell>
        <mxCell id="HDrbAQpTTR-KQfWtHW_W-2" value="id_utilisateurice" style="text;strokeColor=#82b366;fillColor=#d5e8d4;align=left;verticalAlign=middle;spacingLeft=4;spacingRight=4;overflow=hidden;points=[[0,0.5],[1,0.5]];portConstraint=eastwest;rotatable=0;whiteSpace=wrap;html=1;fontStyle=4" parent="HDrbAQpTTR-KQfWtHW_W-1" vertex="1">
          <mxGeometry y="30" width="180" height="30" as="geometry" />
        </mxCell>
        <mxCell id="HDrbAQpTTR-KQfWtHW_W-3" value="date_creation" style="text;strokeColor=none;fillColor=none;align=left;verticalAlign=middle;spacingLeft=4;spacingRight=4;overflow=hidden;points=[[0,0.5],[1,0.5]];portConstraint=eastwest;rotatable=0;whiteSpace=wrap;html=1;" parent="HDrbAQpTTR-KQfWtHW_W-1" vertex="1">
          <mxGeometry y="60" width="180" height="30" as="geometry" />
        </mxCell>
        <mxCell id="HDrbAQpTTR-KQfWtHW_W-4" value="image_profil" style="text;strokeColor=none;fillColor=none;align=left;verticalAlign=middle;spacingLeft=4;spacingRight=4;overflow=hidden;points=[[0,0.5],[1,0.5]];portConstraint=eastwest;rotatable=0;whiteSpace=wrap;html=1;" parent="HDrbAQpTTR-KQfWtHW_W-1" vertex="1">
          <mxGeometry y="90" width="180" height="30" as="geometry" />
        </mxCell>
        <mxCell id="HDrbAQpTTR-KQfWtHW_W-5" value="mail" style="text;strokeColor=none;fillColor=none;align=left;verticalAlign=middle;spacingLeft=4;spacingRight=4;overflow=hidden;points=[[0,0.5],[1,0.5]];portConstraint=eastwest;rotatable=0;whiteSpace=wrap;html=1;" parent="HDrbAQpTTR-KQfWtHW_W-1" vertex="1">
          <mxGeometry y="120" width="180" height="30" as="geometry" />
        </mxCell>
        <mxCell id="HDrbAQpTTR-KQfWtHW_W-6" value="pseudo" style="text;strokeColor=none;fillColor=none;align=left;verticalAlign=middle;spacingLeft=4;spacingRight=4;overflow=hidden;points=[[0,0.5],[1,0.5]];portConstraint=eastwest;rotatable=0;whiteSpace=wrap;html=1;" parent="HDrbAQpTTR-KQfWtHW_W-1" vertex="1">
          <mxGeometry y="150" width="180" height="30" as="geometry" />
        </mxCell>
        <mxCell id="HDrbAQpTTR-KQfWtHW_W-7" value="&lt;div&gt;observation&lt;/div&gt;" style="swimlane;fontStyle=0;childLayout=stackLayout;horizontal=1;startSize=30;horizontalStack=0;resizeParent=1;resizeParentMax=0;resizeLast=0;collapsible=1;marginBottom=0;whiteSpace=wrap;html=1;fillColor=#6d8764;strokeColor=#3A5431;swimlaneFillColor=none;fontColor=#ffffff;" parent="1" vertex="1">
          <mxGeometry x="180" y="-65" width="180" height="390" as="geometry" />
        </mxCell>
        <mxCell id="HDrbAQpTTR-KQfWtHW_W-8" value="id_observation" style="text;strokeColor=#82b366;fillColor=#d5e8d4;align=left;verticalAlign=middle;spacingLeft=4;spacingRight=4;overflow=hidden;points=[[0,0.5],[1,0.5]];portConstraint=eastwest;rotatable=0;whiteSpace=wrap;html=1;fontStyle=4" parent="HDrbAQpTTR-KQfWtHW_W-7" vertex="1">
          <mxGeometry y="30" width="180" height="30" as="geometry" />
        </mxCell>
        <mxCell id="HDrbAQpTTR-KQfWtHW_W-9" value="date_creation" style="text;strokeColor=none;fillColor=none;align=left;verticalAlign=middle;spacingLeft=4;spacingRight=4;overflow=hidden;points=[[0,0.5],[1,0.5]];portConstraint=eastwest;rotatable=0;whiteSpace=wrap;html=1;" parent="HDrbAQpTTR-KQfWtHW_W-7" vertex="1">
          <mxGeometry y="60" width="180" height="30" as="geometry" />
        </mxCell>
        <mxCell id="HDrbAQpTTR-KQfWtHW_W-10" value="date_observation" style="text;strokeColor=none;fillColor=none;align=left;verticalAlign=middle;spacingLeft=4;spacingRight=4;overflow=hidden;points=[[0,0.5],[1,0.5]];portConstraint=eastwest;rotatable=0;whiteSpace=wrap;html=1;" parent="HDrbAQpTTR-KQfWtHW_W-7" vertex="1">
          <mxGeometry y="90" width="180" height="30" as="geometry" />
        </mxCell>
        <mxCell id="HDrbAQpTTR-KQfWtHW_W-11" value="description" style="text;strokeColor=none;fillColor=none;align=left;verticalAlign=middle;spacingLeft=4;spacingRight=4;overflow=hidden;points=[[0,0.5],[1,0.5]];portConstraint=eastwest;rotatable=0;whiteSpace=wrap;html=1;" parent="HDrbAQpTTR-KQfWtHW_W-7" vertex="1">
          <mxGeometry y="120" width="180" height="30" as="geometry" />
        </mxCell>
        <mxCell id="HDrbAQpTTR-KQfWtHW_W-12" value="temperature" style="text;strokeColor=none;fillColor=none;align=left;verticalAlign=middle;spacingLeft=4;spacingRight=4;overflow=hidden;points=[[0,0.5],[1,0.5]];portConstraint=eastwest;rotatable=0;whiteSpace=wrap;html=1;" parent="HDrbAQpTTR-KQfWtHW_W-7" vertex="1">
          <mxGeometry y="150" width="180" height="30" as="geometry" />
        </mxCell>
        <mxCell id="HDrbAQpTTR-KQfWtHW_W-13" value="latitude" style="text;strokeColor=none;fillColor=none;align=left;verticalAlign=middle;spacingLeft=4;spacingRight=4;overflow=hidden;points=[[0,0.5],[1,0.5]];portConstraint=eastwest;rotatable=0;whiteSpace=wrap;html=1;" parent="HDrbAQpTTR-KQfWtHW_W-7" vertex="1">
          <mxGeometry y="180" width="180" height="30" as="geometry" />
        </mxCell>
        <mxCell id="HDrbAQpTTR-KQfWtHW_W-14" value="longitude" style="text;strokeColor=none;fillColor=none;align=left;verticalAlign=middle;spacingLeft=4;spacingRight=4;overflow=hidden;points=[[0,0.5],[1,0.5]];portConstraint=eastwest;rotatable=0;whiteSpace=wrap;html=1;" parent="HDrbAQpTTR-KQfWtHW_W-7" vertex="1">
          <mxGeometry y="210" width="180" height="30" as="geometry" />
        </mxCell>
        <mxCell id="HDrbAQpTTR-KQfWtHW_W-15" value="humidite" style="text;strokeColor=none;fillColor=none;align=left;verticalAlign=middle;spacingLeft=4;spacingRight=4;overflow=hidden;points=[[0,0.5],[1,0.5]];portConstraint=eastwest;rotatable=0;whiteSpace=wrap;html=1;" parent="HDrbAQpTTR-KQfWtHW_W-7" vertex="1">
          <mxGeometry y="240" width="180" height="30" as="geometry" />
        </mxCell>
        <mxCell id="HDrbAQpTTR-KQfWtHW_W-16" value="organisme_hote" style="text;strokeColor=none;fillColor=none;align=left;verticalAlign=middle;spacingLeft=4;spacingRight=4;overflow=hidden;points=[[0,0.5],[1,0.5]];portConstraint=eastwest;rotatable=0;whiteSpace=wrap;html=1;" parent="HDrbAQpTTR-KQfWtHW_W-7" vertex="1">
          <mxGeometry y="270" width="180" height="30" as="geometry" />
        </mxCell>
        <mxCell id="HDrbAQpTTR-KQfWtHW_W-17" value="organisme_proche" style="text;strokeColor=none;fillColor=none;align=left;verticalAlign=middle;spacingLeft=4;spacingRight=4;overflow=hidden;points=[[0,0.5],[1,0.5]];portConstraint=eastwest;rotatable=0;whiteSpace=wrap;html=1;" parent="HDrbAQpTTR-KQfWtHW_W-7" vertex="1">
          <mxGeometry y="300" width="180" height="30" as="geometry" />
        </mxCell>
        <mxCell id="HDrbAQpTTR-KQfWtHW_W-18" value="id_utilisateurice" style="text;strokeColor=#d6b656;fillColor=#fff2cc;align=left;verticalAlign=middle;spacingLeft=4;spacingRight=4;overflow=hidden;points=[[0,0.5],[1,0.5]];portConstraint=eastwest;rotatable=0;whiteSpace=wrap;html=1;fontStyle=1" parent="HDrbAQpTTR-KQfWtHW_W-7" vertex="1">
          <mxGeometry y="330" width="180" height="30" as="geometry" />
        </mxCell>
        <mxCell id="HDrbAQpTTR-KQfWtHW_W-19" value="id_insecte" style="text;strokeColor=#d6b656;fillColor=#fff2cc;align=left;verticalAlign=middle;spacingLeft=4;spacingRight=4;overflow=hidden;points=[[0,0.5],[1,0.5]];portConstraint=eastwest;rotatable=0;whiteSpace=wrap;html=1;fontStyle=1" parent="HDrbAQpTTR-KQfWtHW_W-7" vertex="1">
          <mxGeometry y="360" width="180" height="30" as="geometry" />
        </mxCell>
        <mxCell id="HDrbAQpTTR-KQfWtHW_W-20" value="insecte" style="swimlane;fontStyle=0;childLayout=stackLayout;horizontal=1;startSize=30;horizontalStack=0;resizeParent=1;resizeParentMax=0;resizeLast=0;collapsible=1;marginBottom=0;whiteSpace=wrap;html=1;fillColor=#6d8764;strokeColor=#3A5431;swimlaneFillColor=none;fontColor=#ffffff;" parent="1" vertex="1">
          <mxGeometry x="-120" y="-155" width="180" height="570" as="geometry" />
        </mxCell>
        <mxCell id="HDrbAQpTTR-KQfWtHW_W-21" value="id_insecte" style="text;strokeColor=#82b366;fillColor=#d5e8d4;align=left;verticalAlign=middle;spacingLeft=4;spacingRight=4;overflow=hidden;points=[[0,0.5],[1,0.5]];portConstraint=eastwest;rotatable=0;whiteSpace=wrap;html=1;fontStyle=4" parent="HDrbAQpTTR-KQfWtHW_W-20" vertex="1">
          <mxGeometry y="30" width="180" height="30" as="geometry" />
        </mxCell>
        <mxCell id="HDrbAQpTTR-KQfWtHW_W-22" value="nom_commun" style="text;strokeColor=none;fillColor=none;align=left;verticalAlign=middle;spacingLeft=4;spacingRight=4;overflow=hidden;points=[[0,0.5],[1,0.5]];portConstraint=eastwest;rotatable=0;whiteSpace=wrap;html=1;" parent="HDrbAQpTTR-KQfWtHW_W-20" vertex="1">
          <mxGeometry y="60" width="180" height="30" as="geometry" />
        </mxCell>
        <mxCell id="HDrbAQpTTR-KQfWtHW_W-23" value="nom_scientifique" style="text;strokeColor=none;fillColor=none;align=left;verticalAlign=middle;spacingLeft=4;spacingRight=4;overflow=hidden;points=[[0,0.5],[1,0.5]];portConstraint=eastwest;rotatable=0;whiteSpace=wrap;html=1;" parent="HDrbAQpTTR-KQfWtHW_W-20" vertex="1">
          <mxGeometry y="90" width="180" height="30" as="geometry" />
        </mxCell>
        <mxCell id="HDrbAQpTTR-KQfWtHW_W-24" value="ordre" style="text;strokeColor=none;fillColor=none;align=left;verticalAlign=middle;spacingLeft=4;spacingRight=4;overflow=hidden;points=[[0,0.5],[1,0.5]];portConstraint=eastwest;rotatable=0;whiteSpace=wrap;html=1;" parent="HDrbAQpTTR-KQfWtHW_W-20" vertex="1">
          <mxGeometry y="120" width="180" height="30" as="geometry" />
        </mxCell>
        <mxCell id="HDrbAQpTTR-KQfWtHW_W-25" value="famille" style="text;strokeColor=none;fillColor=none;align=left;verticalAlign=middle;spacingLeft=4;spacingRight=4;overflow=hidden;points=[[0,0.5],[1,0.5]];portConstraint=eastwest;rotatable=0;whiteSpace=wrap;html=1;" parent="HDrbAQpTTR-KQfWtHW_W-20" vertex="1">
          <mxGeometry y="150" width="180" height="30" as="geometry" />
        </mxCell>
        <mxCell id="HDrbAQpTTR-KQfWtHW_W-26" value="taille" style="text;strokeColor=none;fillColor=none;align=left;verticalAlign=middle;spacingLeft=4;spacingRight=4;overflow=hidden;points=[[0,0.5],[1,0.5]];portConstraint=eastwest;rotatable=0;whiteSpace=wrap;html=1;" parent="HDrbAQpTTR-KQfWtHW_W-20" vertex="1">
          <mxGeometry y="180" width="180" height="30" as="geometry" />
        </mxCell>
        <mxCell id="HDrbAQpTTR-KQfWtHW_W-27" value="couleur" style="text;strokeColor=none;fillColor=none;align=left;verticalAlign=middle;spacingLeft=4;spacingRight=4;overflow=hidden;points=[[0,0.5],[1,0.5]];portConstraint=eastwest;rotatable=0;whiteSpace=wrap;html=1;" parent="HDrbAQpTTR-KQfWtHW_W-20" vertex="1">
          <mxGeometry y="210" width="180" height="30" as="geometry" />
        </mxCell>
        <mxCell id="HDrbAQpTTR-KQfWtHW_W-28" value="description" style="text;strokeColor=none;fillColor=none;align=left;verticalAlign=middle;spacingLeft=4;spacingRight=4;overflow=hidden;points=[[0,0.5],[1,0.5]];portConstraint=eastwest;rotatable=0;whiteSpace=wrap;html=1;" parent="HDrbAQpTTR-KQfWtHW_W-20" vertex="1">
          <mxGeometry y="240" width="180" height="30" as="geometry" />
        </mxCell>
        <mxCell id="HDrbAQpTTR-KQfWtHW_W-29" value="alimentation_type" style="text;strokeColor=none;fillColor=none;align=left;verticalAlign=middle;spacingLeft=4;spacingRight=4;overflow=hidden;points=[[0,0.5],[1,0.5]];portConstraint=eastwest;rotatable=0;whiteSpace=wrap;html=1;" parent="HDrbAQpTTR-KQfWtHW_W-20" vertex="1">
          <mxGeometry y="270" width="180" height="30" as="geometry" />
        </mxCell>
        <mxCell id="HDrbAQpTTR-KQfWtHW_W-30" value="alimentation_regime" style="text;strokeColor=none;fillColor=none;align=left;verticalAlign=middle;spacingLeft=4;spacingRight=4;overflow=hidden;points=[[0,0.5],[1,0.5]];portConstraint=eastwest;rotatable=0;whiteSpace=wrap;html=1;" parent="HDrbAQpTTR-KQfWtHW_W-20" vertex="1">
          <mxGeometry y="300" width="180" height="30" as="geometry" />
        </mxCell>
        <mxCell id="HDrbAQpTTR-KQfWtHW_W-31" value="role_ecologique" style="text;strokeColor=none;fillColor=none;align=left;verticalAlign=middle;spacingLeft=4;spacingRight=4;overflow=hidden;points=[[0,0.5],[1,0.5]];portConstraint=eastwest;rotatable=0;whiteSpace=wrap;html=1;" parent="HDrbAQpTTR-KQfWtHW_W-20" vertex="1">
          <mxGeometry y="330" width="180" height="30" as="geometry" />
        </mxCell>
        <mxCell id="HDrbAQpTTR-KQfWtHW_W-32" value="duree_de_vie" style="text;strokeColor=none;fillColor=none;align=left;verticalAlign=middle;spacingLeft=4;spacingRight=4;overflow=hidden;points=[[0,0.5],[1,0.5]];portConstraint=eastwest;rotatable=0;whiteSpace=wrap;html=1;" parent="HDrbAQpTTR-KQfWtHW_W-20" vertex="1">
          <mxGeometry y="360" width="180" height="30" as="geometry" />
        </mxCell>
        <mxCell id="HDrbAQpTTR-KQfWtHW_W-33" value="id_habitat" style="text;strokeColor=#d6b656;fillColor=#fff2cc;align=left;verticalAlign=middle;spacingLeft=4;spacingRight=4;overflow=hidden;points=[[0,0.5],[1,0.5]];portConstraint=eastwest;rotatable=0;whiteSpace=wrap;html=1;fontStyle=1" parent="HDrbAQpTTR-KQfWtHW_W-20" vertex="1">
          <mxGeometry y="390" width="180" height="30" as="geometry" />
        </mxCell>
        <mxCell id="HDrbAQpTTR-KQfWtHW_W-34" value="id_cycle_de_vie" style="text;strokeColor=#d6b656;fillColor=#fff2cc;align=left;verticalAlign=middle;spacingLeft=4;spacingRight=4;overflow=hidden;points=[[0,0.5],[1,0.5]];portConstraint=eastwest;rotatable=0;whiteSpace=wrap;html=1;fontStyle=1" parent="HDrbAQpTTR-KQfWtHW_W-20" vertex="1">
          <mxGeometry y="420" width="180" height="30" as="geometry" />
        </mxCell>
        <mxCell id="HDrbAQpTTR-KQfWtHW_W-35" value="id_caracteristique" style="text;strokeColor=#d6b656;fillColor=#fff2cc;align=left;verticalAlign=middle;spacingLeft=4;spacingRight=4;overflow=hidden;points=[[0,0.5],[1,0.5]];portConstraint=eastwest;rotatable=0;whiteSpace=wrap;html=1;fontStyle=1" parent="HDrbAQpTTR-KQfWtHW_W-20" vertex="1">
          <mxGeometry y="450" width="180" height="30" as="geometry" />
        </mxCell>
        <mxCell id="HDrbAQpTTR-KQfWtHW_W-36" value="id_menace" style="text;strokeColor=#d6b656;fillColor=#fff2cc;align=left;verticalAlign=middle;spacingLeft=4;spacingRight=4;overflow=hidden;points=[[0,0.5],[1,0.5]];portConstraint=eastwest;rotatable=0;whiteSpace=wrap;html=1;fontStyle=1" parent="HDrbAQpTTR-KQfWtHW_W-20" vertex="1">
          <mxGeometry y="480" width="180" height="30" as="geometry" />
        </mxCell>
        <mxCell id="HDrbAQpTTR-KQfWtHW_W-37" value="id_comportement" style="text;strokeColor=#d6b656;fillColor=#fff2cc;align=left;verticalAlign=middle;spacingLeft=4;spacingRight=4;overflow=hidden;points=[[0,0.5],[1,0.5]];portConstraint=eastwest;rotatable=0;whiteSpace=wrap;html=1;fontStyle=1" parent="HDrbAQpTTR-KQfWtHW_W-20" vertex="1">
          <mxGeometry y="510" width="180" height="30" as="geometry" />
        </mxCell>
        <mxCell id="HDrbAQpTTR-KQfWtHW_W-38" value="id_interet_humain" style="text;strokeColor=#d6b656;fillColor=#fff2cc;align=left;verticalAlign=middle;spacingLeft=4;spacingRight=4;overflow=hidden;points=[[0,0.5],[1,0.5]];portConstraint=eastwest;rotatable=0;whiteSpace=wrap;html=1;fontStyle=1" parent="HDrbAQpTTR-KQfWtHW_W-20" vertex="1">
          <mxGeometry y="540" width="180" height="30" as="geometry" />
        </mxCell>
        <mxCell id="HDrbAQpTTR-KQfWtHW_W-39" value="habitat" style="swimlane;fontStyle=0;childLayout=stackLayout;horizontal=1;startSize=30;horizontalStack=0;resizeParent=1;resizeParentMax=0;resizeLast=0;collapsible=1;marginBottom=0;whiteSpace=wrap;html=1;fillColor=#6d8764;strokeColor=#3A5431;swimlaneFillColor=none;fontColor=#ffffff;" parent="1" vertex="1">
          <mxGeometry x="-420" y="-345" width="180" height="120" as="geometry" />
        </mxCell>
        <mxCell id="HDrbAQpTTR-KQfWtHW_W-40" value="id_habitat" style="text;strokeColor=#82b366;fillColor=#d5e8d4;align=left;verticalAlign=middle;spacingLeft=4;spacingRight=4;overflow=hidden;points=[[0,0.5],[1,0.5]];portConstraint=eastwest;rotatable=0;whiteSpace=wrap;html=1;fontStyle=4" parent="HDrbAQpTTR-KQfWtHW_W-39" vertex="1">
          <mxGeometry y="30" width="180" height="30" as="geometry" />
        </mxCell>
        <mxCell id="HDrbAQpTTR-KQfWtHW_W-41" value="regions" style="text;strokeColor=none;fillColor=none;align=left;verticalAlign=middle;spacingLeft=4;spacingRight=4;overflow=hidden;points=[[0,0.5],[1,0.5]];portConstraint=eastwest;rotatable=0;whiteSpace=wrap;html=1;" parent="HDrbAQpTTR-KQfWtHW_W-39" vertex="1">
          <mxGeometry y="60" width="180" height="30" as="geometry" />
        </mxCell>
        <mxCell id="HDrbAQpTTR-KQfWtHW_W-42" value="environnement" style="text;strokeColor=none;fillColor=none;align=left;verticalAlign=middle;spacingLeft=4;spacingRight=4;overflow=hidden;points=[[0,0.5],[1,0.5]];portConstraint=eastwest;rotatable=0;whiteSpace=wrap;html=1;" parent="HDrbAQpTTR-KQfWtHW_W-39" vertex="1">
          <mxGeometry y="90" width="180" height="30" as="geometry" />
        </mxCell>
        <mxCell id="HDrbAQpTTR-KQfWtHW_W-43" value="cycle_de_vie" style="swimlane;fontStyle=0;childLayout=stackLayout;horizontal=1;startSize=30;horizontalStack=0;resizeParent=1;resizeParentMax=0;resizeLast=0;collapsible=1;marginBottom=0;whiteSpace=wrap;html=1;fillColor=#6d8764;strokeColor=#3A5431;swimlaneFillColor=none;fontColor=#ffffff;" parent="1" vertex="1">
          <mxGeometry x="-420" y="-185" width="180" height="90" as="geometry" />
        </mxCell>
        <mxCell id="HDrbAQpTTR-KQfWtHW_W-44" value="id_cycle_de_vie" style="text;strokeColor=#82b366;fillColor=#d5e8d4;align=left;verticalAlign=middle;spacingLeft=4;spacingRight=4;overflow=hidden;points=[[0,0.5],[1,0.5]];portConstraint=eastwest;rotatable=0;whiteSpace=wrap;html=1;fontStyle=4" parent="HDrbAQpTTR-KQfWtHW_W-43" vertex="1">
          <mxGeometry y="30" width="180" height="30" as="geometry" />
        </mxCell>
        <mxCell id="HDrbAQpTTR-KQfWtHW_W-45" value="stades" style="text;strokeColor=none;fillColor=none;align=left;verticalAlign=middle;spacingLeft=4;spacingRight=4;overflow=hidden;points=[[0,0.5],[1,0.5]];portConstraint=eastwest;rotatable=0;whiteSpace=wrap;html=1;" parent="HDrbAQpTTR-KQfWtHW_W-43" vertex="1">
          <mxGeometry y="60" width="180" height="30" as="geometry" />
        </mxCell>
        <mxCell id="HDrbAQpTTR-KQfWtHW_W-46" value="caracterisque" style="swimlane;fontStyle=0;childLayout=stackLayout;horizontal=1;startSize=30;horizontalStack=0;resizeParent=1;resizeParentMax=0;resizeLast=0;collapsible=1;marginBottom=0;whiteSpace=wrap;html=1;fillColor=#6d8764;strokeColor=#3A5431;swimlaneFillColor=none;fontColor=#ffffff;" parent="1" vertex="1">
          <mxGeometry x="-420" y="-55" width="180" height="180" as="geometry" />
        </mxCell>
        <mxCell id="HDrbAQpTTR-KQfWtHW_W-47" value="id_caracterisque" style="text;strokeColor=#82b366;fillColor=#d5e8d4;align=left;verticalAlign=middle;spacingLeft=4;spacingRight=4;overflow=hidden;points=[[0,0.5],[1,0.5]];portConstraint=eastwest;rotatable=0;whiteSpace=wrap;html=1;fontStyle=4" parent="HDrbAQpTTR-KQfWtHW_W-46" vertex="1">
          <mxGeometry y="30" width="180" height="30" as="geometry" />
        </mxCell>
        <mxCell id="HDrbAQpTTR-KQfWtHW_W-48" value="ailes" style="text;strokeColor=none;fillColor=none;align=left;verticalAlign=middle;spacingLeft=4;spacingRight=4;overflow=hidden;points=[[0,0.5],[1,0.5]];portConstraint=eastwest;rotatable=0;whiteSpace=wrap;html=1;" parent="HDrbAQpTTR-KQfWtHW_W-46" vertex="1">
          <mxGeometry y="60" width="180" height="30" as="geometry" />
        </mxCell>
        <mxCell id="HDrbAQpTTR-KQfWtHW_W-49" value="pattes" style="text;strokeColor=none;fillColor=none;align=left;verticalAlign=middle;spacingLeft=4;spacingRight=4;overflow=hidden;points=[[0,0.5],[1,0.5]];portConstraint=eastwest;rotatable=0;whiteSpace=wrap;html=1;" parent="HDrbAQpTTR-KQfWtHW_W-46" vertex="1">
          <mxGeometry y="90" width="180" height="30" as="geometry" />
        </mxCell>
        <mxCell id="HDrbAQpTTR-KQfWtHW_W-50" value="antennes" style="text;strokeColor=none;fillColor=none;align=left;verticalAlign=middle;spacingLeft=4;spacingRight=4;overflow=hidden;points=[[0,0.5],[1,0.5]];portConstraint=eastwest;rotatable=0;whiteSpace=wrap;html=1;" parent="HDrbAQpTTR-KQfWtHW_W-46" vertex="1">
          <mxGeometry y="120" width="180" height="30" as="geometry" />
        </mxCell>
        <mxCell id="HDrbAQpTTR-KQfWtHW_W-51" value="yeux" style="text;strokeColor=none;fillColor=none;align=left;verticalAlign=middle;spacingLeft=4;spacingRight=4;overflow=hidden;points=[[0,0.5],[1,0.5]];portConstraint=eastwest;rotatable=0;whiteSpace=wrap;html=1;" parent="HDrbAQpTTR-KQfWtHW_W-46" vertex="1">
          <mxGeometry y="150" width="180" height="30" as="geometry" />
        </mxCell>
        <mxCell id="HDrbAQpTTR-KQfWtHW_W-52" value="menace" style="swimlane;fontStyle=0;childLayout=stackLayout;horizontal=1;startSize=30;horizontalStack=0;resizeParent=1;resizeParentMax=0;resizeLast=0;collapsible=1;marginBottom=0;whiteSpace=wrap;html=1;fillColor=#6d8764;strokeColor=#3A5431;swimlaneFillColor=none;fontColor=#ffffff;" parent="1" vertex="1">
          <mxGeometry x="-420" y="165" width="180" height="120" as="geometry" />
        </mxCell>
        <mxCell id="HDrbAQpTTR-KQfWtHW_W-53" value="id_menace" style="text;strokeColor=#82b366;fillColor=#d5e8d4;align=left;verticalAlign=middle;spacingLeft=4;spacingRight=4;overflow=hidden;points=[[0,0.5],[1,0.5]];portConstraint=eastwest;rotatable=0;whiteSpace=wrap;html=1;fontStyle=4" parent="HDrbAQpTTR-KQfWtHW_W-52" vertex="1">
          <mxGeometry y="30" width="180" height="30" as="geometry" />
        </mxCell>
        <mxCell id="HDrbAQpTTR-KQfWtHW_W-54" value="predateurs" style="text;strokeColor=none;fillColor=none;align=left;verticalAlign=middle;spacingLeft=4;spacingRight=4;overflow=hidden;points=[[0,0.5],[1,0.5]];portConstraint=eastwest;rotatable=0;whiteSpace=wrap;html=1;" parent="HDrbAQpTTR-KQfWtHW_W-52" vertex="1">
          <mxGeometry y="60" width="180" height="30" as="geometry" />
        </mxCell>
        <mxCell id="HDrbAQpTTR-KQfWtHW_W-55" value="problemes_environnementaux" style="text;strokeColor=none;fillColor=none;align=left;verticalAlign=middle;spacingLeft=4;spacingRight=4;overflow=hidden;points=[[0,0.5],[1,0.5]];portConstraint=eastwest;rotatable=0;horizontal=1;textShadow=0;whiteSpace=wrap;html=1;" parent="HDrbAQpTTR-KQfWtHW_W-52" vertex="1">
          <mxGeometry y="90" width="180" height="30" as="geometry" />
        </mxCell>
        <mxCell id="HDrbAQpTTR-KQfWtHW_W-56" value="comportement" style="swimlane;fontStyle=0;childLayout=stackLayout;horizontal=1;startSize=30;horizontalStack=0;resizeParent=1;resizeParentMax=0;resizeLast=0;collapsible=1;marginBottom=0;whiteSpace=wrap;html=1;fillColor=#6d8764;strokeColor=#3A5431;swimlaneFillColor=none;fontColor=#ffffff;" parent="1" vertex="1">
          <mxGeometry x="-420" y="325" width="180" height="120" as="geometry" />
        </mxCell>
        <mxCell id="HDrbAQpTTR-KQfWtHW_W-57" value="id_comportement" style="text;strokeColor=#82b366;fillColor=#d5e8d4;align=left;verticalAlign=middle;spacingLeft=4;spacingRight=4;overflow=hidden;points=[[0,0.5],[1,0.5]];portConstraint=eastwest;rotatable=0;whiteSpace=wrap;html=1;fontStyle=4" parent="HDrbAQpTTR-KQfWtHW_W-56" vertex="1">
          <mxGeometry y="30" width="180" height="30" as="geometry" />
        </mxCell>
        <mxCell id="HDrbAQpTTR-KQfWtHW_W-58" value="migration" style="text;strokeColor=none;fillColor=none;align=left;verticalAlign=middle;spacingLeft=4;spacingRight=4;overflow=hidden;points=[[0,0.5],[1,0.5]];portConstraint=eastwest;rotatable=0;whiteSpace=wrap;html=1;" parent="HDrbAQpTTR-KQfWtHW_W-56" vertex="1">
          <mxGeometry y="60" width="180" height="30" as="geometry" />
        </mxCell>
        <mxCell id="HDrbAQpTTR-KQfWtHW_W-59" value="hibernation" style="text;strokeColor=none;fillColor=none;align=left;verticalAlign=middle;spacingLeft=4;spacingRight=4;overflow=hidden;points=[[0,0.5],[1,0.5]];portConstraint=eastwest;rotatable=0;whiteSpace=wrap;html=1;" parent="HDrbAQpTTR-KQfWtHW_W-56" vertex="1">
          <mxGeometry y="90" width="180" height="30" as="geometry" />
        </mxCell>
        <mxCell id="HDrbAQpTTR-KQfWtHW_W-60" value="interet_humain" style="swimlane;fontStyle=0;childLayout=stackLayout;horizontal=1;startSize=30;horizontalStack=0;resizeParent=1;resizeParentMax=0;resizeLast=0;collapsible=1;marginBottom=0;whiteSpace=wrap;html=1;fillColor=#6d8764;strokeColor=#3A5431;swimlaneFillColor=none;fontColor=#ffffff;" parent="1" vertex="1">
          <mxGeometry x="-420" y="485" width="180" height="120" as="geometry" />
        </mxCell>
        <mxCell id="HDrbAQpTTR-KQfWtHW_W-61" value="id_interet_humain" style="text;strokeColor=#82b366;fillColor=#d5e8d4;align=left;verticalAlign=middle;spacingLeft=4;spacingRight=4;overflow=hidden;points=[[0,0.5],[1,0.5]];portConstraint=eastwest;rotatable=0;whiteSpace=wrap;html=1;fontStyle=4" parent="HDrbAQpTTR-KQfWtHW_W-60" vertex="1">
          <mxGeometry y="30" width="180" height="30" as="geometry" />
        </mxCell>
        <mxCell id="HDrbAQpTTR-KQfWtHW_W-62" value="utilite" style="text;strokeColor=none;fillColor=none;align=left;verticalAlign=middle;spacingLeft=4;spacingRight=4;overflow=hidden;points=[[0,0.5],[1,0.5]];portConstraint=eastwest;rotatable=0;whiteSpace=wrap;html=1;" parent="HDrbAQpTTR-KQfWtHW_W-60" vertex="1">
          <mxGeometry y="60" width="180" height="30" as="geometry" />
        </mxCell>
        <mxCell id="HDrbAQpTTR-KQfWtHW_W-63" value="symbolisme" style="text;strokeColor=none;fillColor=none;align=left;verticalAlign=middle;spacingLeft=4;spacingRight=4;overflow=hidden;points=[[0,0.5],[1,0.5]];portConstraint=eastwest;rotatable=0;whiteSpace=wrap;html=1;" parent="HDrbAQpTTR-KQfWtHW_W-60" vertex="1">
          <mxGeometry y="90" width="180" height="30" as="geometry" />
        </mxCell>
        <mxCell id="U3B04lKumcRnXFw3C5sO-1" value="photo" style="swimlane;fontStyle=0;childLayout=stackLayout;horizontal=1;startSize=30;horizontalStack=0;resizeParent=1;resizeParentMax=0;resizeLast=0;collapsible=1;marginBottom=0;whiteSpace=wrap;html=1;fillColor=#6d8764;strokeColor=#3A5431;swimlaneFillColor=none;fontColor=#ffffff;" vertex="1" parent="1">
          <mxGeometry x="480" y="-65" width="180" height="120" as="geometry" />
        </mxCell>
        <mxCell id="U3B04lKumcRnXFw3C5sO-2" value="id_photo" style="text;strokeColor=#82b366;fillColor=#d5e8d4;align=left;verticalAlign=middle;spacingLeft=4;spacingRight=4;overflow=hidden;points=[[0,0.5],[1,0.5]];portConstraint=eastwest;rotatable=0;whiteSpace=wrap;html=1;fontStyle=4" vertex="1" parent="U3B04lKumcRnXFw3C5sO-1">
          <mxGeometry y="30" width="180" height="30" as="geometry" />
        </mxCell>
        <mxCell id="U3B04lKumcRnXFw3C5sO-3" value="uuid" style="text;strokeColor=none;fillColor=none;align=left;verticalAlign=middle;spacingLeft=4;spacingRight=4;overflow=hidden;points=[[0,0.5],[1,0.5]];portConstraint=eastwest;rotatable=0;whiteSpace=wrap;html=1;" vertex="1" parent="U3B04lKumcRnXFw3C5sO-1">
          <mxGeometry y="60" width="180" height="30" as="geometry" />
        </mxCell>
        <mxCell id="U3B04lKumcRnXFw3C5sO-4" value="observation_id" style="text;strokeColor=#d6b656;fillColor=#fff2cc;align=left;verticalAlign=middle;spacingLeft=4;spacingRight=4;overflow=hidden;points=[[0,0.5],[1,0.5]];portConstraint=eastwest;rotatable=0;whiteSpace=wrap;html=1;fontStyle=1" vertex="1" parent="U3B04lKumcRnXFw3C5sO-1">
          <mxGeometry y="90" width="180" height="30" as="geometry" />
        </mxCell>
        <mxCell id="U3B04lKumcRnXFw3C5sO-7" value="" style="endArrow=classic;html=1;rounded=0;exitX=1;exitY=0.5;exitDx=0;exitDy=0;entryX=0;entryY=0.5;entryDx=0;entryDy=0;" edge="1" parent="1" source="HDrbAQpTTR-KQfWtHW_W-53" target="HDrbAQpTTR-KQfWtHW_W-36">
          <mxGeometry width="50" height="50" relative="1" as="geometry">
            <mxPoint x="-140" y="290" as="sourcePoint" />
            <mxPoint x="-90" y="240" as="targetPoint" />
          </mxGeometry>
        </mxCell>
        <mxCell id="U3B04lKumcRnXFw3C5sO-8" value="" style="endArrow=classic;html=1;rounded=0;exitX=1;exitY=0.5;exitDx=0;exitDy=0;entryX=0;entryY=0.5;entryDx=0;entryDy=0;" edge="1" parent="1" source="HDrbAQpTTR-KQfWtHW_W-57" target="HDrbAQpTTR-KQfWtHW_W-37">
          <mxGeometry width="50" height="50" relative="1" as="geometry">
            <mxPoint x="-250" y="250" as="sourcePoint" />
            <mxPoint x="-130" y="380" as="targetPoint" />
          </mxGeometry>
        </mxCell>
        <mxCell id="U3B04lKumcRnXFw3C5sO-9" value="" style="endArrow=classic;html=1;rounded=0;exitX=1;exitY=0.5;exitDx=0;exitDy=0;entryX=0;entryY=0.5;entryDx=0;entryDy=0;" edge="1" parent="1" source="HDrbAQpTTR-KQfWtHW_W-61" target="HDrbAQpTTR-KQfWtHW_W-38">
          <mxGeometry width="50" height="50" relative="1" as="geometry">
            <mxPoint x="-240" y="430" as="sourcePoint" />
            <mxPoint x="-120" y="430" as="targetPoint" />
          </mxGeometry>
        </mxCell>
        <mxCell id="U3B04lKumcRnXFw3C5sO-10" value="" style="endArrow=classic;html=1;rounded=0;exitX=1;exitY=0.5;exitDx=0;exitDy=0;entryX=0;entryY=0.5;entryDx=0;entryDy=0;" edge="1" parent="1" source="HDrbAQpTTR-KQfWtHW_W-47" target="HDrbAQpTTR-KQfWtHW_W-35">
          <mxGeometry width="50" height="50" relative="1" as="geometry">
            <mxPoint x="-240" y="100" as="sourcePoint" />
            <mxPoint x="-120" y="230" as="targetPoint" />
          </mxGeometry>
        </mxCell>
        <mxCell id="U3B04lKumcRnXFw3C5sO-11" value="" style="endArrow=classic;html=1;rounded=0;exitX=1;exitY=0.5;exitDx=0;exitDy=0;entryX=0;entryY=0.5;entryDx=0;entryDy=0;" edge="1" parent="1" source="HDrbAQpTTR-KQfWtHW_W-44" target="HDrbAQpTTR-KQfWtHW_W-34">
          <mxGeometry width="50" height="50" relative="1" as="geometry">
            <mxPoint x="-230" y="-95" as="sourcePoint" />
            <mxPoint x="-110" y="225" as="targetPoint" />
          </mxGeometry>
        </mxCell>
        <mxCell id="U3B04lKumcRnXFw3C5sO-12" value="" style="endArrow=classic;html=1;rounded=0;exitX=1;exitY=0.5;exitDx=0;exitDy=0;entryX=0;entryY=0.5;entryDx=0;entryDy=0;" edge="1" parent="1" source="HDrbAQpTTR-KQfWtHW_W-40" target="HDrbAQpTTR-KQfWtHW_W-33">
          <mxGeometry width="50" height="50" relative="1" as="geometry">
            <mxPoint x="-230" y="-185" as="sourcePoint" />
            <mxPoint x="-110" y="235" as="targetPoint" />
          </mxGeometry>
        </mxCell>
        <mxCell id="U3B04lKumcRnXFw3C5sO-15" value="" style="endArrow=classic;html=1;rounded=0;entryX=0;entryY=0.5;entryDx=0;entryDy=0;" edge="1" parent="1" target="HDrbAQpTTR-KQfWtHW_W-19">
          <mxGeometry width="50" height="50" relative="1" as="geometry">
            <mxPoint x="60" y="-110" as="sourcePoint" />
            <mxPoint x="180" y="240" as="targetPoint" />
          </mxGeometry>
        </mxCell>
        <mxCell id="U3B04lKumcRnXFw3C5sO-16" value="" style="endArrow=classic;html=1;rounded=0;entryX=0;entryY=0.5;entryDx=0;entryDy=0;exitX=1;exitY=0.5;exitDx=0;exitDy=0;" edge="1" parent="1" source="HDrbAQpTTR-KQfWtHW_W-8" target="U3B04lKumcRnXFw3C5sO-4">
          <mxGeometry width="50" height="50" relative="1" as="geometry">
            <mxPoint x="340" y="-80" as="sourcePoint" />
            <mxPoint x="460" y="340" as="targetPoint" />
          </mxGeometry>
        </mxCell>
        <mxCell id="U3B04lKumcRnXFw3C5sO-17" value="" style="endArrow=classic;html=1;rounded=0;entryX=1;entryY=0.5;entryDx=0;entryDy=0;exitX=0;exitY=0.5;exitDx=0;exitDy=0;" edge="1" parent="1" source="HDrbAQpTTR-KQfWtHW_W-2" target="HDrbAQpTTR-KQfWtHW_W-18">
          <mxGeometry width="50" height="50" relative="1" as="geometry">
            <mxPoint x="360" y="80" as="sourcePoint" />
            <mxPoint x="480" y="140" as="targetPoint" />
          </mxGeometry>
        </mxCell>
      </root>
    </mxGraphModel>
  </diagram>
  <diagram id="SBW6OHzy1FatdG8Nz9QJ" name="UML">
    <mxGraphModel dx="1536" dy="823" grid="1" gridSize="10" guides="1" tooltips="1" connect="1" arrows="1" fold="1" page="1" pageScale="1" pageWidth="1920" pageHeight="1200" math="0" shadow="0">
      <root>
        <mxCell id="0" />
        <mxCell id="1" parent="0" />
      </root>
    </mxGraphModel>
  </diagram>
  <diagram name="r-MCD" id="TcKV1U-ZO6m3opLKe3NR">
    <mxGraphModel dx="4261" dy="2665" grid="1" gridSize="10" guides="1" tooltips="1" connect="1" arrows="1" fold="1" page="1" pageScale="1" pageWidth="827" pageHeight="1169" math="0" shadow="0">
      <root>
        <mxCell id="xurpzdkw1ZZrTRPc1lX4-0" />
        <mxCell id="xurpzdkw1ZZrTRPc1lX4-1" parent="xurpzdkw1ZZrTRPc1lX4-0" />
        <mxCell id="xurpzdkw1ZZrTRPc1lX4-2" value="" style="rounded=0;whiteSpace=wrap;html=1;fillColor=none;" vertex="1" parent="xurpzdkw1ZZrTRPc1lX4-1">
          <mxGeometry x="1050" y="-440" width="410" height="160" as="geometry" />
        </mxCell>
        <mxCell id="xurpzdkw1ZZrTRPc1lX4-3" value="utilisateurice" style="swimlane;fontStyle=0;childLayout=stackLayout;horizontal=1;startSize=30;horizontalStack=0;resizeParent=1;resizeParentMax=0;resizeLast=0;collapsible=1;marginBottom=0;whiteSpace=wrap;html=1;fillColor=#6d8764;strokeColor=#3A5431;swimlaneFillColor=none;fontColor=#ffffff;" vertex="1" parent="xurpzdkw1ZZrTRPc1lX4-1">
          <mxGeometry x="839" y="-407.5" width="180" height="210" as="geometry" />
        </mxCell>
        <mxCell id="xurpzdkw1ZZrTRPc1lX4-4" value="id" style="text;strokeColor=#82b366;fillColor=#d5e8d4;align=left;verticalAlign=middle;spacingLeft=4;spacingRight=4;overflow=hidden;points=[[0,0.5],[1,0.5]];portConstraint=eastwest;rotatable=0;whiteSpace=wrap;html=1;" vertex="1" parent="xurpzdkw1ZZrTRPc1lX4-3">
          <mxGeometry y="30" width="180" height="30" as="geometry" />
        </mxCell>
        <mxCell id="xurpzdkw1ZZrTRPc1lX4-5" value="date_creation" style="text;strokeColor=none;fillColor=none;align=left;verticalAlign=middle;spacingLeft=4;spacingRight=4;overflow=hidden;points=[[0,0.5],[1,0.5]];portConstraint=eastwest;rotatable=0;whiteSpace=wrap;html=1;" vertex="1" parent="xurpzdkw1ZZrTRPc1lX4-3">
          <mxGeometry y="60" width="180" height="30" as="geometry" />
        </mxCell>
        <mxCell id="xurpzdkw1ZZrTRPc1lX4-6" value="image_profil" style="text;strokeColor=none;fillColor=none;align=left;verticalAlign=middle;spacingLeft=4;spacingRight=4;overflow=hidden;points=[[0,0.5],[1,0.5]];portConstraint=eastwest;rotatable=0;whiteSpace=wrap;html=1;" vertex="1" parent="xurpzdkw1ZZrTRPc1lX4-3">
          <mxGeometry y="90" width="180" height="30" as="geometry" />
        </mxCell>
        <mxCell id="xurpzdkw1ZZrTRPc1lX4-7" value="mail" style="text;strokeColor=none;fillColor=none;align=left;verticalAlign=middle;spacingLeft=4;spacingRight=4;overflow=hidden;points=[[0,0.5],[1,0.5]];portConstraint=eastwest;rotatable=0;whiteSpace=wrap;html=1;" vertex="1" parent="xurpzdkw1ZZrTRPc1lX4-3">
          <mxGeometry y="120" width="180" height="30" as="geometry" />
        </mxCell>
        <mxCell id="xurpzdkw1ZZrTRPc1lX4-8" value="pseudo" style="text;strokeColor=none;fillColor=none;align=left;verticalAlign=middle;spacingLeft=4;spacingRight=4;overflow=hidden;points=[[0,0.5],[1,0.5]];portConstraint=eastwest;rotatable=0;whiteSpace=wrap;html=1;" vertex="1" parent="xurpzdkw1ZZrTRPc1lX4-3">
          <mxGeometry y="150" width="180" height="30" as="geometry" />
        </mxCell>
        <mxCell id="xurpzdkw1ZZrTRPc1lX4-9" value="mot de passe" style="text;strokeColor=none;fillColor=none;align=left;verticalAlign=middle;spacingLeft=4;spacingRight=4;overflow=hidden;points=[[0,0.5],[1,0.5]];portConstraint=eastwest;rotatable=0;whiteSpace=wrap;html=1;" vertex="1" parent="xurpzdkw1ZZrTRPc1lX4-3">
          <mxGeometry y="180" width="180" height="30" as="geometry" />
        </mxCell>
        <mxCell id="xurpzdkw1ZZrTRPc1lX4-10" value="&lt;div&gt;observation&lt;/div&gt;&lt;div&gt;observe&lt;/div&gt;&lt;div&gt;être observé&lt;/div&gt;" style="swimlane;fontStyle=0;childLayout=stackLayout;horizontal=1;startSize=55;horizontalStack=0;resizeParent=1;resizeParentMax=0;resizeLast=0;collapsible=1;marginBottom=0;whiteSpace=wrap;html=1;fillColor=#6d8764;strokeColor=#3A5431;swimlaneFillColor=none;fontColor=#ffffff;" vertex="1" parent="xurpzdkw1ZZrTRPc1lX4-1">
          <mxGeometry x="379.5" y="-520" width="180" height="445" as="geometry" />
        </mxCell>
        <mxCell id="xurpzdkw1ZZrTRPc1lX4-11" value="id" style="text;strokeColor=#82b366;fillColor=#d5e8d4;align=left;verticalAlign=middle;spacingLeft=4;spacingRight=4;overflow=hidden;points=[[0,0.5],[1,0.5]];portConstraint=eastwest;rotatable=0;whiteSpace=wrap;html=1;" vertex="1" parent="xurpzdkw1ZZrTRPc1lX4-10">
          <mxGeometry y="55" width="180" height="30" as="geometry" />
        </mxCell>
        <mxCell id="xurpzdkw1ZZrTRPc1lX4-12" value="date_creation" style="text;strokeColor=none;fillColor=none;align=left;verticalAlign=middle;spacingLeft=4;spacingRight=4;overflow=hidden;points=[[0,0.5],[1,0.5]];portConstraint=eastwest;rotatable=0;whiteSpace=wrap;html=1;" vertex="1" parent="xurpzdkw1ZZrTRPc1lX4-10">
          <mxGeometry y="85" width="180" height="30" as="geometry" />
        </mxCell>
        <mxCell id="xurpzdkw1ZZrTRPc1lX4-13" value="date_observation" style="text;strokeColor=none;fillColor=none;align=left;verticalAlign=middle;spacingLeft=4;spacingRight=4;overflow=hidden;points=[[0,0.5],[1,0.5]];portConstraint=eastwest;rotatable=0;whiteSpace=wrap;html=1;" vertex="1" parent="xurpzdkw1ZZrTRPc1lX4-10">
          <mxGeometry y="115" width="180" height="30" as="geometry" />
        </mxCell>
        <mxCell id="xurpzdkw1ZZrTRPc1lX4-14" value="description" style="text;strokeColor=none;fillColor=none;align=left;verticalAlign=middle;spacingLeft=4;spacingRight=4;overflow=hidden;points=[[0,0.5],[1,0.5]];portConstraint=eastwest;rotatable=0;whiteSpace=wrap;html=1;" vertex="1" parent="xurpzdkw1ZZrTRPc1lX4-10">
          <mxGeometry y="145" width="180" height="30" as="geometry" />
        </mxCell>
        <mxCell id="xurpzdkw1ZZrTRPc1lX4-15" value="taille" style="text;strokeColor=none;fillColor=none;align=left;verticalAlign=middle;spacingLeft=4;spacingRight=4;overflow=hidden;points=[[0,0.5],[1,0.5]];portConstraint=eastwest;rotatable=0;whiteSpace=wrap;html=1;" vertex="1" parent="xurpzdkw1ZZrTRPc1lX4-10">
          <mxGeometry y="175" width="180" height="30" as="geometry" />
        </mxCell>
        <mxCell id="xurpzdkw1ZZrTRPc1lX4-16" value="temperature" style="text;strokeColor=none;fillColor=none;align=left;verticalAlign=middle;spacingLeft=4;spacingRight=4;overflow=hidden;points=[[0,0.5],[1,0.5]];portConstraint=eastwest;rotatable=0;whiteSpace=wrap;html=1;" vertex="1" parent="xurpzdkw1ZZrTRPc1lX4-10">
          <mxGeometry y="205" width="180" height="30" as="geometry" />
        </mxCell>
        <mxCell id="xurpzdkw1ZZrTRPc1lX4-17" value="latitude" style="text;strokeColor=none;fillColor=none;align=left;verticalAlign=middle;spacingLeft=4;spacingRight=4;overflow=hidden;points=[[0,0.5],[1,0.5]];portConstraint=eastwest;rotatable=0;whiteSpace=wrap;html=1;" vertex="1" parent="xurpzdkw1ZZrTRPc1lX4-10">
          <mxGeometry y="235" width="180" height="30" as="geometry" />
        </mxCell>
        <mxCell id="xurpzdkw1ZZrTRPc1lX4-18" value="longitude" style="text;strokeColor=none;fillColor=none;align=left;verticalAlign=middle;spacingLeft=4;spacingRight=4;overflow=hidden;points=[[0,0.5],[1,0.5]];portConstraint=eastwest;rotatable=0;whiteSpace=wrap;html=1;" vertex="1" parent="xurpzdkw1ZZrTRPc1lX4-10">
          <mxGeometry y="265" width="180" height="30" as="geometry" />
        </mxCell>
        <mxCell id="xurpzdkw1ZZrTRPc1lX4-19" value="humidite" style="text;strokeColor=none;fillColor=none;align=left;verticalAlign=middle;spacingLeft=4;spacingRight=4;overflow=hidden;points=[[0,0.5],[1,0.5]];portConstraint=eastwest;rotatable=0;whiteSpace=wrap;html=1;" vertex="1" parent="xurpzdkw1ZZrTRPc1lX4-10">
          <mxGeometry y="295" width="180" height="30" as="geometry" />
        </mxCell>
        <mxCell id="xurpzdkw1ZZrTRPc1lX4-20" value="organisme_hote" style="text;strokeColor=none;fillColor=none;align=left;verticalAlign=middle;spacingLeft=4;spacingRight=4;overflow=hidden;points=[[0,0.5],[1,0.5]];portConstraint=eastwest;rotatable=0;whiteSpace=wrap;html=1;" vertex="1" parent="xurpzdkw1ZZrTRPc1lX4-10">
          <mxGeometry y="325" width="180" height="30" as="geometry" />
        </mxCell>
        <mxCell id="xurpzdkw1ZZrTRPc1lX4-21" value="organisme_proche" style="text;strokeColor=none;fillColor=none;align=left;verticalAlign=middle;spacingLeft=4;spacingRight=4;overflow=hidden;points=[[0,0.5],[1,0.5]];portConstraint=eastwest;rotatable=0;whiteSpace=wrap;html=1;" vertex="1" parent="xurpzdkw1ZZrTRPc1lX4-10">
          <mxGeometry y="355" width="180" height="30" as="geometry" />
        </mxCell>
        <mxCell id="xurpzdkw1ZZrTRPc1lX4-22" value="id_utilisateurice" style="text;strokeColor=none;fillColor=none;align=left;verticalAlign=middle;spacingLeft=4;spacingRight=4;overflow=hidden;points=[[0,0.5],[1,0.5]];portConstraint=eastwest;rotatable=0;whiteSpace=wrap;html=1;" vertex="1" parent="xurpzdkw1ZZrTRPc1lX4-10">
          <mxGeometry y="385" width="180" height="30" as="geometry" />
        </mxCell>
        <mxCell id="xurpzdkw1ZZrTRPc1lX4-23" value="id_insecte" style="text;strokeColor=none;fillColor=none;align=left;verticalAlign=middle;spacingLeft=4;spacingRight=4;overflow=hidden;points=[[0,0.5],[1,0.5]];portConstraint=eastwest;rotatable=0;whiteSpace=wrap;html=1;" vertex="1" parent="xurpzdkw1ZZrTRPc1lX4-10">
          <mxGeometry y="415" width="180" height="30" as="geometry" />
        </mxCell>
        <mxCell id="xurpzdkw1ZZrTRPc1lX4-24" value="insecte" style="swimlane;fontStyle=0;childLayout=stackLayout;horizontal=1;startSize=30;horizontalStack=0;resizeParent=1;resizeParentMax=0;resizeLast=0;collapsible=1;marginBottom=0;whiteSpace=wrap;html=1;fillColor=#6d8764;strokeColor=#3A5431;swimlaneFillColor=none;fontColor=#ffffff;" vertex="1" parent="xurpzdkw1ZZrTRPc1lX4-1">
          <mxGeometry x="-90" y="-155" width="180" height="570" as="geometry" />
        </mxCell>
        <mxCell id="xurpzdkw1ZZrTRPc1lX4-25" value="id" style="text;strokeColor=#82b366;fillColor=#d5e8d4;align=left;verticalAlign=middle;spacingLeft=4;spacingRight=4;overflow=hidden;points=[[0,0.5],[1,0.5]];portConstraint=eastwest;rotatable=0;whiteSpace=wrap;html=1;" vertex="1" parent="xurpzdkw1ZZrTRPc1lX4-24">
          <mxGeometry y="30" width="180" height="30" as="geometry" />
        </mxCell>
        <mxCell id="xurpzdkw1ZZrTRPc1lX4-26" value="nom_commun" style="text;strokeColor=none;fillColor=none;align=left;verticalAlign=middle;spacingLeft=4;spacingRight=4;overflow=hidden;points=[[0,0.5],[1,0.5]];portConstraint=eastwest;rotatable=0;whiteSpace=wrap;html=1;" vertex="1" parent="xurpzdkw1ZZrTRPc1lX4-24">
          <mxGeometry y="60" width="180" height="30" as="geometry" />
        </mxCell>
        <mxCell id="xurpzdkw1ZZrTRPc1lX4-27" value="nom_scientifique" style="text;strokeColor=none;fillColor=none;align=left;verticalAlign=middle;spacingLeft=4;spacingRight=4;overflow=hidden;points=[[0,0.5],[1,0.5]];portConstraint=eastwest;rotatable=0;whiteSpace=wrap;html=1;" vertex="1" parent="xurpzdkw1ZZrTRPc1lX4-24">
          <mxGeometry y="90" width="180" height="30" as="geometry" />
        </mxCell>
        <mxCell id="xurpzdkw1ZZrTRPc1lX4-28" value="ordre" style="text;strokeColor=none;fillColor=none;align=left;verticalAlign=middle;spacingLeft=4;spacingRight=4;overflow=hidden;points=[[0,0.5],[1,0.5]];portConstraint=eastwest;rotatable=0;whiteSpace=wrap;html=1;" vertex="1" parent="xurpzdkw1ZZrTRPc1lX4-24">
          <mxGeometry y="120" width="180" height="30" as="geometry" />
        </mxCell>
        <mxCell id="xurpzdkw1ZZrTRPc1lX4-29" value="famille" style="text;strokeColor=none;fillColor=none;align=left;verticalAlign=middle;spacingLeft=4;spacingRight=4;overflow=hidden;points=[[0,0.5],[1,0.5]];portConstraint=eastwest;rotatable=0;whiteSpace=wrap;html=1;" vertex="1" parent="xurpzdkw1ZZrTRPc1lX4-24">
          <mxGeometry y="150" width="180" height="30" as="geometry" />
        </mxCell>
        <mxCell id="xurpzdkw1ZZrTRPc1lX4-30" value="taille" style="text;strokeColor=none;fillColor=none;align=left;verticalAlign=middle;spacingLeft=4;spacingRight=4;overflow=hidden;points=[[0,0.5],[1,0.5]];portConstraint=eastwest;rotatable=0;whiteSpace=wrap;html=1;" vertex="1" parent="xurpzdkw1ZZrTRPc1lX4-24">
          <mxGeometry y="180" width="180" height="30" as="geometry" />
        </mxCell>
        <mxCell id="xurpzdkw1ZZrTRPc1lX4-31" value="couleur" style="text;strokeColor=none;fillColor=none;align=left;verticalAlign=middle;spacingLeft=4;spacingRight=4;overflow=hidden;points=[[0,0.5],[1,0.5]];portConstraint=eastwest;rotatable=0;whiteSpace=wrap;html=1;" vertex="1" parent="xurpzdkw1ZZrTRPc1lX4-24">
          <mxGeometry y="210" width="180" height="30" as="geometry" />
        </mxCell>
        <mxCell id="xurpzdkw1ZZrTRPc1lX4-32" value="description" style="text;strokeColor=none;fillColor=none;align=left;verticalAlign=middle;spacingLeft=4;spacingRight=4;overflow=hidden;points=[[0,0.5],[1,0.5]];portConstraint=eastwest;rotatable=0;whiteSpace=wrap;html=1;" vertex="1" parent="xurpzdkw1ZZrTRPc1lX4-24">
          <mxGeometry y="240" width="180" height="30" as="geometry" />
        </mxCell>
        <mxCell id="xurpzdkw1ZZrTRPc1lX4-33" value="alimentation_type" style="text;strokeColor=none;fillColor=none;align=left;verticalAlign=middle;spacingLeft=4;spacingRight=4;overflow=hidden;points=[[0,0.5],[1,0.5]];portConstraint=eastwest;rotatable=0;whiteSpace=wrap;html=1;" vertex="1" parent="xurpzdkw1ZZrTRPc1lX4-24">
          <mxGeometry y="270" width="180" height="30" as="geometry" />
        </mxCell>
        <mxCell id="xurpzdkw1ZZrTRPc1lX4-34" value="alimentation_regime" style="text;strokeColor=none;fillColor=none;align=left;verticalAlign=middle;spacingLeft=4;spacingRight=4;overflow=hidden;points=[[0,0.5],[1,0.5]];portConstraint=eastwest;rotatable=0;whiteSpace=wrap;html=1;" vertex="1" parent="xurpzdkw1ZZrTRPc1lX4-24">
          <mxGeometry y="300" width="180" height="30" as="geometry" />
        </mxCell>
        <mxCell id="xurpzdkw1ZZrTRPc1lX4-35" value="role_ecologique" style="text;strokeColor=none;fillColor=none;align=left;verticalAlign=middle;spacingLeft=4;spacingRight=4;overflow=hidden;points=[[0,0.5],[1,0.5]];portConstraint=eastwest;rotatable=0;whiteSpace=wrap;html=1;" vertex="1" parent="xurpzdkw1ZZrTRPc1lX4-24">
          <mxGeometry y="330" width="180" height="30" as="geometry" />
        </mxCell>
        <mxCell id="xurpzdkw1ZZrTRPc1lX4-36" value="duree_de_vie" style="text;strokeColor=none;fillColor=none;align=left;verticalAlign=middle;spacingLeft=4;spacingRight=4;overflow=hidden;points=[[0,0.5],[1,0.5]];portConstraint=eastwest;rotatable=0;whiteSpace=wrap;html=1;" vertex="1" parent="xurpzdkw1ZZrTRPc1lX4-24">
          <mxGeometry y="360" width="180" height="30" as="geometry" />
        </mxCell>
        <mxCell id="xurpzdkw1ZZrTRPc1lX4-37" value="stade" style="text;strokeColor=none;fillColor=none;align=left;verticalAlign=middle;spacingLeft=4;spacingRight=4;overflow=hidden;points=[[0,0.5],[1,0.5]];portConstraint=eastwest;rotatable=0;whiteSpace=wrap;html=1;" vertex="1" parent="xurpzdkw1ZZrTRPc1lX4-24">
          <mxGeometry y="390" width="180" height="30" as="geometry" />
        </mxCell>
        <mxCell id="xurpzdkw1ZZrTRPc1lX4-38" value="id_habitat" style="text;strokeColor=none;fillColor=none;align=left;verticalAlign=middle;spacingLeft=4;spacingRight=4;overflow=hidden;points=[[0,0.5],[1,0.5]];portConstraint=eastwest;rotatable=0;whiteSpace=wrap;html=1;" vertex="1" parent="xurpzdkw1ZZrTRPc1lX4-24">
          <mxGeometry y="420" width="180" height="30" as="geometry" />
        </mxCell>
        <mxCell id="xurpzdkw1ZZrTRPc1lX4-39" value="id_&lt;span style=&quot;background-color: initial;&quot;&gt;caracteristique&lt;/span&gt;" style="text;strokeColor=none;fillColor=none;align=left;verticalAlign=middle;spacingLeft=4;spacingRight=4;overflow=hidden;points=[[0,0.5],[1,0.5]];portConstraint=eastwest;rotatable=0;whiteSpace=wrap;html=1;" vertex="1" parent="xurpzdkw1ZZrTRPc1lX4-24">
          <mxGeometry y="450" width="180" height="30" as="geometry" />
        </mxCell>
        <mxCell id="xurpzdkw1ZZrTRPc1lX4-40" value="id_menace" style="text;strokeColor=none;fillColor=none;align=left;verticalAlign=middle;spacingLeft=4;spacingRight=4;overflow=hidden;points=[[0,0.5],[1,0.5]];portConstraint=eastwest;rotatable=0;whiteSpace=wrap;html=1;" vertex="1" parent="xurpzdkw1ZZrTRPc1lX4-24">
          <mxGeometry y="480" width="180" height="30" as="geometry" />
        </mxCell>
        <mxCell id="xurpzdkw1ZZrTRPc1lX4-41" value="id_comportement" style="text;strokeColor=none;fillColor=none;align=left;verticalAlign=middle;spacingLeft=4;spacingRight=4;overflow=hidden;points=[[0,0.5],[1,0.5]];portConstraint=eastwest;rotatable=0;whiteSpace=wrap;html=1;" vertex="1" parent="xurpzdkw1ZZrTRPc1lX4-24">
          <mxGeometry y="510" width="180" height="30" as="geometry" />
        </mxCell>
        <mxCell id="xurpzdkw1ZZrTRPc1lX4-42" value="id_interet_humain" style="text;strokeColor=none;fillColor=none;align=left;verticalAlign=middle;spacingLeft=4;spacingRight=4;overflow=hidden;points=[[0,0.5],[1,0.5]];portConstraint=eastwest;rotatable=0;whiteSpace=wrap;html=1;" vertex="1" parent="xurpzdkw1ZZrTRPc1lX4-24">
          <mxGeometry y="540" width="180" height="30" as="geometry" />
        </mxCell>
        <mxCell id="xurpzdkw1ZZrTRPc1lX4-43" value="habitat" style="swimlane;fontStyle=0;childLayout=stackLayout;horizontal=1;startSize=30;horizontalStack=0;resizeParent=1;resizeParentMax=0;resizeLast=0;collapsible=1;marginBottom=0;whiteSpace=wrap;html=1;fillColor=#6d8764;strokeColor=#3A5431;swimlaneFillColor=none;fontColor=#ffffff;" vertex="1" parent="xurpzdkw1ZZrTRPc1lX4-1">
          <mxGeometry x="839" y="-50" width="180" height="120" as="geometry" />
        </mxCell>
        <mxCell id="xurpzdkw1ZZrTRPc1lX4-44" value="id" style="text;strokeColor=#82b366;fillColor=#d5e8d4;align=left;verticalAlign=middle;spacingLeft=4;spacingRight=4;overflow=hidden;points=[[0,0.5],[1,0.5]];portConstraint=eastwest;rotatable=0;whiteSpace=wrap;html=1;" vertex="1" parent="xurpzdkw1ZZrTRPc1lX4-43">
          <mxGeometry y="30" width="180" height="30" as="geometry" />
        </mxCell>
        <mxCell id="xurpzdkw1ZZrTRPc1lX4-45" value="regions" style="text;strokeColor=none;fillColor=none;align=left;verticalAlign=middle;spacingLeft=4;spacingRight=4;overflow=hidden;points=[[0,0.5],[1,0.5]];portConstraint=eastwest;rotatable=0;whiteSpace=wrap;html=1;" vertex="1" parent="xurpzdkw1ZZrTRPc1lX4-43">
          <mxGeometry y="60" width="180" height="30" as="geometry" />
        </mxCell>
        <mxCell id="xurpzdkw1ZZrTRPc1lX4-46" value="environnement" style="text;strokeColor=none;fillColor=none;align=left;verticalAlign=middle;spacingLeft=4;spacingRight=4;overflow=hidden;points=[[0,0.5],[1,0.5]];portConstraint=eastwest;rotatable=0;whiteSpace=wrap;html=1;" vertex="1" parent="xurpzdkw1ZZrTRPc1lX4-43">
          <mxGeometry y="90" width="180" height="30" as="geometry" />
        </mxCell>
        <mxCell id="xurpzdkw1ZZrTRPc1lX4-47" value="caracterisque" style="swimlane;fontStyle=0;childLayout=stackLayout;horizontal=1;startSize=30;horizontalStack=0;resizeParent=1;resizeParentMax=0;resizeLast=0;collapsible=1;marginBottom=0;whiteSpace=wrap;html=1;fillColor=#6d8764;strokeColor=#3A5431;swimlaneFillColor=none;fontColor=#ffffff;" vertex="1" parent="xurpzdkw1ZZrTRPc1lX4-1">
          <mxGeometry x="839" y="150" width="180" height="180" as="geometry" />
        </mxCell>
        <mxCell id="xurpzdkw1ZZrTRPc1lX4-48" value="id" style="text;strokeColor=#82b366;fillColor=#d5e8d4;align=left;verticalAlign=middle;spacingLeft=4;spacingRight=4;overflow=hidden;points=[[0,0.5],[1,0.5]];portConstraint=eastwest;rotatable=0;whiteSpace=wrap;html=1;" vertex="1" parent="xurpzdkw1ZZrTRPc1lX4-47">
          <mxGeometry y="30" width="180" height="30" as="geometry" />
        </mxCell>
        <mxCell id="xurpzdkw1ZZrTRPc1lX4-49" value="ailes" style="text;strokeColor=none;fillColor=none;align=left;verticalAlign=middle;spacingLeft=4;spacingRight=4;overflow=hidden;points=[[0,0.5],[1,0.5]];portConstraint=eastwest;rotatable=0;whiteSpace=wrap;html=1;" vertex="1" parent="xurpzdkw1ZZrTRPc1lX4-47">
          <mxGeometry y="60" width="180" height="30" as="geometry" />
        </mxCell>
        <mxCell id="xurpzdkw1ZZrTRPc1lX4-50" value="pattes" style="text;strokeColor=none;fillColor=none;align=left;verticalAlign=middle;spacingLeft=4;spacingRight=4;overflow=hidden;points=[[0,0.5],[1,0.5]];portConstraint=eastwest;rotatable=0;whiteSpace=wrap;html=1;" vertex="1" parent="xurpzdkw1ZZrTRPc1lX4-47">
          <mxGeometry y="90" width="180" height="30" as="geometry" />
        </mxCell>
        <mxCell id="xurpzdkw1ZZrTRPc1lX4-51" value="antennes" style="text;strokeColor=none;fillColor=none;align=left;verticalAlign=middle;spacingLeft=4;spacingRight=4;overflow=hidden;points=[[0,0.5],[1,0.5]];portConstraint=eastwest;rotatable=0;whiteSpace=wrap;html=1;" vertex="1" parent="xurpzdkw1ZZrTRPc1lX4-47">
          <mxGeometry y="120" width="180" height="30" as="geometry" />
        </mxCell>
        <mxCell id="xurpzdkw1ZZrTRPc1lX4-52" value="yeux" style="text;strokeColor=none;fillColor=none;align=left;verticalAlign=middle;spacingLeft=4;spacingRight=4;overflow=hidden;points=[[0,0.5],[1,0.5]];portConstraint=eastwest;rotatable=0;whiteSpace=wrap;html=1;" vertex="1" parent="xurpzdkw1ZZrTRPc1lX4-47">
          <mxGeometry y="150" width="180" height="30" as="geometry" />
        </mxCell>
        <mxCell id="xurpzdkw1ZZrTRPc1lX4-53" value="menace" style="swimlane;fontStyle=0;childLayout=stackLayout;horizontal=1;startSize=30;horizontalStack=0;resizeParent=1;resizeParentMax=0;resizeLast=0;collapsible=1;marginBottom=0;whiteSpace=wrap;html=1;fillColor=#6d8764;strokeColor=#3A5431;swimlaneFillColor=none;fontColor=#ffffff;" vertex="1" parent="xurpzdkw1ZZrTRPc1lX4-1">
          <mxGeometry x="839" y="410" width="180" height="120" as="geometry" />
        </mxCell>
        <mxCell id="xurpzdkw1ZZrTRPc1lX4-54" value="id" style="text;strokeColor=#82b366;fillColor=#d5e8d4;align=left;verticalAlign=middle;spacingLeft=4;spacingRight=4;overflow=hidden;points=[[0,0.5],[1,0.5]];portConstraint=eastwest;rotatable=0;whiteSpace=wrap;html=1;" vertex="1" parent="xurpzdkw1ZZrTRPc1lX4-53">
          <mxGeometry y="30" width="180" height="30" as="geometry" />
        </mxCell>
        <mxCell id="xurpzdkw1ZZrTRPc1lX4-55" value="predateurs" style="text;strokeColor=none;fillColor=none;align=left;verticalAlign=middle;spacingLeft=4;spacingRight=4;overflow=hidden;points=[[0,0.5],[1,0.5]];portConstraint=eastwest;rotatable=0;whiteSpace=wrap;html=1;" vertex="1" parent="xurpzdkw1ZZrTRPc1lX4-53">
          <mxGeometry y="60" width="180" height="30" as="geometry" />
        </mxCell>
        <mxCell id="xurpzdkw1ZZrTRPc1lX4-56" value="problemes_environnementaux" style="text;strokeColor=none;fillColor=none;align=left;verticalAlign=middle;spacingLeft=4;spacingRight=4;overflow=hidden;points=[[0,0.5],[1,0.5]];portConstraint=eastwest;rotatable=0;horizontal=1;textShadow=0;whiteSpace=wrap;html=1;" vertex="1" parent="xurpzdkw1ZZrTRPc1lX4-53">
          <mxGeometry y="90" width="180" height="30" as="geometry" />
        </mxCell>
        <mxCell id="xurpzdkw1ZZrTRPc1lX4-57" value="comportement" style="swimlane;fontStyle=0;childLayout=stackLayout;horizontal=1;startSize=30;horizontalStack=0;resizeParent=1;resizeParentMax=0;resizeLast=0;collapsible=1;marginBottom=0;whiteSpace=wrap;html=1;fillColor=#6d8764;strokeColor=#3A5431;swimlaneFillColor=none;fontColor=#ffffff;" vertex="1" parent="xurpzdkw1ZZrTRPc1lX4-1">
          <mxGeometry x="839" y="610" width="180" height="120" as="geometry" />
        </mxCell>
        <mxCell id="xurpzdkw1ZZrTRPc1lX4-58" value="id" style="text;strokeColor=#82b366;fillColor=#d5e8d4;align=left;verticalAlign=middle;spacingLeft=4;spacingRight=4;overflow=hidden;points=[[0,0.5],[1,0.5]];portConstraint=eastwest;rotatable=0;whiteSpace=wrap;html=1;" vertex="1" parent="xurpzdkw1ZZrTRPc1lX4-57">
          <mxGeometry y="30" width="180" height="30" as="geometry" />
        </mxCell>
        <mxCell id="xurpzdkw1ZZrTRPc1lX4-59" value="migration" style="text;strokeColor=none;fillColor=none;align=left;verticalAlign=middle;spacingLeft=4;spacingRight=4;overflow=hidden;points=[[0,0.5],[1,0.5]];portConstraint=eastwest;rotatable=0;whiteSpace=wrap;html=1;" vertex="1" parent="xurpzdkw1ZZrTRPc1lX4-57">
          <mxGeometry y="60" width="180" height="30" as="geometry" />
        </mxCell>
        <mxCell id="xurpzdkw1ZZrTRPc1lX4-60" value="hibernation" style="text;strokeColor=none;fillColor=none;align=left;verticalAlign=middle;spacingLeft=4;spacingRight=4;overflow=hidden;points=[[0,0.5],[1,0.5]];portConstraint=eastwest;rotatable=0;whiteSpace=wrap;html=1;" vertex="1" parent="xurpzdkw1ZZrTRPc1lX4-57">
          <mxGeometry y="90" width="180" height="30" as="geometry" />
        </mxCell>
        <mxCell id="xurpzdkw1ZZrTRPc1lX4-61" value="interet_humain" style="swimlane;fontStyle=0;childLayout=stackLayout;horizontal=1;startSize=30;horizontalStack=0;resizeParent=1;resizeParentMax=0;resizeLast=0;collapsible=1;marginBottom=0;whiteSpace=wrap;html=1;fillColor=#6d8764;strokeColor=#3A5431;swimlaneFillColor=none;fontColor=#ffffff;" vertex="1" parent="xurpzdkw1ZZrTRPc1lX4-1">
          <mxGeometry x="839" y="810" width="180" height="120" as="geometry" />
        </mxCell>
        <mxCell id="xurpzdkw1ZZrTRPc1lX4-62" value="id" style="text;strokeColor=#82b366;fillColor=#d5e8d4;align=left;verticalAlign=middle;spacingLeft=4;spacingRight=4;overflow=hidden;points=[[0,0.5],[1,0.5]];portConstraint=eastwest;rotatable=0;whiteSpace=wrap;html=1;" vertex="1" parent="xurpzdkw1ZZrTRPc1lX4-61">
          <mxGeometry y="30" width="180" height="30" as="geometry" />
        </mxCell>
        <mxCell id="xurpzdkw1ZZrTRPc1lX4-63" value="utilite" style="text;strokeColor=none;fillColor=none;align=left;verticalAlign=middle;spacingLeft=4;spacingRight=4;overflow=hidden;points=[[0,0.5],[1,0.5]];portConstraint=eastwest;rotatable=0;whiteSpace=wrap;html=1;" vertex="1" parent="xurpzdkw1ZZrTRPc1lX4-61">
          <mxGeometry y="60" width="180" height="30" as="geometry" />
        </mxCell>
        <mxCell id="xurpzdkw1ZZrTRPc1lX4-64" value="symbolisme" style="text;strokeColor=none;fillColor=none;align=left;verticalAlign=middle;spacingLeft=4;spacingRight=4;overflow=hidden;points=[[0,0.5],[1,0.5]];portConstraint=eastwest;rotatable=0;whiteSpace=wrap;html=1;" vertex="1" parent="xurpzdkw1ZZrTRPc1lX4-61">
          <mxGeometry y="90" width="180" height="30" as="geometry" />
        </mxCell>
        <mxCell id="xurpzdkw1ZZrTRPc1lX4-65" value="" style="endArrow=none;html=1;rounded=0;exitX=1;exitY=0.5;exitDx=0;exitDy=0;entryX=0;entryY=0.25;entryDx=0;entryDy=0;" edge="1" parent="xurpzdkw1ZZrTRPc1lX4-1" source="xurpzdkw1ZZrTRPc1lX4-42" target="xurpzdkw1ZZrTRPc1lX4-80">
          <mxGeometry width="50" height="50" relative="1" as="geometry">
            <mxPoint x="-77.08999999999992" y="325" as="sourcePoint" />
            <mxPoint x="-210" y="430" as="targetPoint" />
          </mxGeometry>
        </mxCell>
        <mxCell id="xurpzdkw1ZZrTRPc1lX4-66" value="" style="endArrow=none;html=1;rounded=0;exitX=0;exitY=0.25;exitDx=0;exitDy=0;entryX=1;entryY=0.5;entryDx=0;entryDy=0;" edge="1" parent="xurpzdkw1ZZrTRPc1lX4-1" source="xurpzdkw1ZZrTRPc1lX4-78" target="xurpzdkw1ZZrTRPc1lX4-40">
          <mxGeometry width="50" height="50" relative="1" as="geometry">
            <mxPoint x="-250" y="280" as="sourcePoint" />
            <mxPoint x="230" y="212.09117647058832" as="targetPoint" />
          </mxGeometry>
        </mxCell>
        <mxCell id="xurpzdkw1ZZrTRPc1lX4-67" value="" style="endArrow=none;html=1;rounded=0;entryX=1;entryY=0.5;entryDx=0;entryDy=0;exitX=0;exitY=0.25;exitDx=0;exitDy=0;" edge="1" parent="xurpzdkw1ZZrTRPc1lX4-1" source="xurpzdkw1ZZrTRPc1lX4-79" target="xurpzdkw1ZZrTRPc1lX4-41">
          <mxGeometry width="50" height="50" relative="1" as="geometry">
            <mxPoint x="-240" y="360" as="sourcePoint" />
            <mxPoint x="210" y="169.11764705882337" as="targetPoint" />
          </mxGeometry>
        </mxCell>
        <mxCell id="xurpzdkw1ZZrTRPc1lX4-68" value="" style="endArrow=none;html=1;rounded=0;exitX=1;exitY=0.5;exitDx=0;exitDy=0;entryX=0;entryY=0.5;entryDx=0;entryDy=0;" edge="1" parent="xurpzdkw1ZZrTRPc1lX4-1" source="xurpzdkw1ZZrTRPc1lX4-25" target="xurpzdkw1ZZrTRPc1lX4-23">
          <mxGeometry width="50" height="50" relative="1" as="geometry">
            <mxPoint x="70" y="50.74000000000001" as="sourcePoint" />
            <mxPoint x="320" y="-224.99529411764684" as="targetPoint" />
          </mxGeometry>
        </mxCell>
        <mxCell id="xurpzdkw1ZZrTRPc1lX4-69" value="" style="endArrow=none;html=1;rounded=0;exitX=0;exitY=0.25;exitDx=0;exitDy=0;entryX=1;entryY=0.5;entryDx=0;entryDy=0;" edge="1" parent="xurpzdkw1ZZrTRPc1lX4-1" source="xurpzdkw1ZZrTRPc1lX4-76" target="xurpzdkw1ZZrTRPc1lX4-39">
          <mxGeometry width="50" height="50" relative="1" as="geometry">
            <mxPoint x="-240" y="-64.99883720930251" as="sourcePoint" />
            <mxPoint x="10" y="-149.30116279069756" as="targetPoint" />
          </mxGeometry>
        </mxCell>
        <mxCell id="xurpzdkw1ZZrTRPc1lX4-70" value="" style="endArrow=none;html=1;rounded=0;exitX=0;exitY=0.5;exitDx=0;exitDy=0;entryX=1;entryY=0.25;entryDx=0;entryDy=0;" edge="1" parent="xurpzdkw1ZZrTRPc1lX4-1" source="xurpzdkw1ZZrTRPc1lX4-44" target="xurpzdkw1ZZrTRPc1lX4-74">
          <mxGeometry width="50" height="50" relative="1" as="geometry">
            <mxPoint x="-247.25" y="-82.17391304347802" as="sourcePoint" />
            <mxPoint x="562.75" y="150" as="targetPoint" />
          </mxGeometry>
        </mxCell>
        <mxCell id="xurpzdkw1ZZrTRPc1lX4-71" value="" style="endArrow=none;html=1;rounded=0;exitX=0;exitY=0.5;exitDx=0;exitDy=0;entryX=1;entryY=0.5;entryDx=0;entryDy=0;" edge="1" parent="xurpzdkw1ZZrTRPc1lX4-1" source="xurpzdkw1ZZrTRPc1lX4-4" target="xurpzdkw1ZZrTRPc1lX4-22">
          <mxGeometry width="50" height="50" relative="1" as="geometry">
            <mxPoint x="639.5" y="-219.85" as="sourcePoint" />
            <mxPoint x="719.5" y="-252.85000000000002" as="targetPoint" />
          </mxGeometry>
        </mxCell>
        <mxCell id="xurpzdkw1ZZrTRPc1lX4-72" value="Définition des Classes d&#39;Entitiés et des Classes d&#39;Association" style="text;html=1;align=left;verticalAlign=middle;whiteSpace=wrap;rounded=0;fontStyle=1;fontSize=30;" vertex="1" parent="xurpzdkw1ZZrTRPc1lX4-1">
          <mxGeometry x="-801.5" y="-590" width="920" height="30" as="geometry" />
        </mxCell>
        <mxCell id="xurpzdkw1ZZrTRPc1lX4-73" value="MCD" style="text;html=1;align=left;verticalAlign=middle;whiteSpace=wrap;rounded=0;fontStyle=1;fontSize=40;" vertex="1" parent="xurpzdkw1ZZrTRPc1lX4-1">
          <mxGeometry x="-801.5" y="-640" width="920" height="30" as="geometry" />
        </mxCell>
        <mxCell id="xurpzdkw1ZZrTRPc1lX4-74" value="habite&lt;div&gt;être habité&lt;/div&gt;" style="swimlane;fontStyle=0;childLayout=stackLayout;horizontal=1;startSize=30;horizontalStack=0;resizeParent=1;resizeParentMax=0;resizeLast=0;collapsible=1;marginBottom=0;whiteSpace=wrap;html=1;fillColor=#6d8764;strokeColor=#3A5431;swimlaneFillColor=none;fontColor=#ffffff;" vertex="1" parent="xurpzdkw1ZZrTRPc1lX4-1">
          <mxGeometry x="379.5" y="110" width="180" height="60" as="geometry" />
        </mxCell>
        <mxCell id="xurpzdkw1ZZrTRPc1lX4-75" value="" style="endArrow=none;html=1;rounded=0;exitX=0;exitY=0.25;exitDx=0;exitDy=0;entryX=1;entryY=0.5;entryDx=0;entryDy=0;" edge="1" parent="xurpzdkw1ZZrTRPc1lX4-1" source="xurpzdkw1ZZrTRPc1lX4-74" target="xurpzdkw1ZZrTRPc1lX4-38">
          <mxGeometry width="50" height="50" relative="1" as="geometry">
            <mxPoint x="-440" y="-185.43" as="sourcePoint" />
            <mxPoint x="-300" y="-155.43" as="targetPoint" />
          </mxGeometry>
        </mxCell>
        <mxCell id="xurpzdkw1ZZrTRPc1lX4-76" value="caractérise&lt;div&gt;être caractérisé&lt;/div&gt;" style="swimlane;fontStyle=0;childLayout=stackLayout;horizontal=1;startSize=30;horizontalStack=0;resizeParent=1;resizeParentMax=0;resizeLast=0;collapsible=1;marginBottom=0;whiteSpace=wrap;html=1;fillColor=#6d8764;strokeColor=#3A5431;swimlaneFillColor=none;fontColor=#ffffff;" vertex="1" parent="xurpzdkw1ZZrTRPc1lX4-1">
          <mxGeometry x="379.5" y="230" width="180" height="60" as="geometry" />
        </mxCell>
        <mxCell id="xurpzdkw1ZZrTRPc1lX4-77" value="" style="endArrow=none;html=1;rounded=0;entryX=1;entryY=0.25;entryDx=0;entryDy=0;exitX=0;exitY=0.5;exitDx=0;exitDy=0;" edge="1" parent="xurpzdkw1ZZrTRPc1lX4-1" source="xurpzdkw1ZZrTRPc1lX4-48" target="xurpzdkw1ZZrTRPc1lX4-76">
          <mxGeometry width="50" height="50" relative="1" as="geometry">
            <mxPoint x="660" y="470" as="sourcePoint" />
            <mxPoint x="642.75" y="440" as="targetPoint" />
          </mxGeometry>
        </mxCell>
        <mxCell id="xurpzdkw1ZZrTRPc1lX4-78" value="engendre&lt;div&gt;être engendré&lt;/div&gt;" style="swimlane;fontStyle=0;childLayout=stackLayout;horizontal=1;startSize=30;horizontalStack=0;resizeParent=1;resizeParentMax=0;resizeLast=0;collapsible=1;marginBottom=0;whiteSpace=wrap;html=1;fillColor=#6d8764;strokeColor=#3A5431;swimlaneFillColor=none;fontColor=#ffffff;" vertex="1" parent="xurpzdkw1ZZrTRPc1lX4-1">
          <mxGeometry x="379.5" y="350" width="180" height="60" as="geometry" />
        </mxCell>
        <mxCell id="xurpzdkw1ZZrTRPc1lX4-79" value="compose&lt;div&gt;être composé&lt;/div&gt;" style="swimlane;fontStyle=0;childLayout=stackLayout;horizontal=1;startSize=30;horizontalStack=0;resizeParent=1;resizeParentMax=0;resizeLast=0;collapsible=1;marginBottom=0;whiteSpace=wrap;html=1;fillColor=#6d8764;strokeColor=#3A5431;swimlaneFillColor=none;fontColor=#ffffff;" vertex="1" parent="xurpzdkw1ZZrTRPc1lX4-1">
          <mxGeometry x="379.5" y="470" width="180" height="60" as="geometry" />
        </mxCell>
        <mxCell id="xurpzdkw1ZZrTRPc1lX4-80" value="crée&lt;div&gt;être créé&lt;/div&gt;" style="swimlane;fontStyle=0;childLayout=stackLayout;horizontal=1;startSize=30;horizontalStack=0;resizeParent=1;resizeParentMax=0;resizeLast=0;collapsible=1;marginBottom=0;whiteSpace=wrap;html=1;fillColor=#6d8764;strokeColor=#3A5431;swimlaneFillColor=none;fontColor=#ffffff;" vertex="1" parent="xurpzdkw1ZZrTRPc1lX4-1">
          <mxGeometry x="379.5" y="590" width="180" height="60" as="geometry" />
        </mxCell>
        <mxCell id="xurpzdkw1ZZrTRPc1lX4-81" value="" style="endArrow=none;html=1;rounded=0;entryX=1;entryY=0.25;entryDx=0;entryDy=0;exitX=0;exitY=0.5;exitDx=0;exitDy=0;" edge="1" parent="xurpzdkw1ZZrTRPc1lX4-1" source="xurpzdkw1ZZrTRPc1lX4-54" target="xurpzdkw1ZZrTRPc1lX4-78">
          <mxGeometry width="50" height="50" relative="1" as="geometry">
            <mxPoint x="-627.25" y="340" as="sourcePoint" />
            <mxPoint x="-557.25" y="450" as="targetPoint" />
          </mxGeometry>
        </mxCell>
        <mxCell id="xurpzdkw1ZZrTRPc1lX4-82" value="" style="endArrow=none;html=1;rounded=0;entryX=1;entryY=0.25;entryDx=0;entryDy=0;exitX=0;exitY=0.5;exitDx=0;exitDy=0;" edge="1" parent="xurpzdkw1ZZrTRPc1lX4-1" source="xurpzdkw1ZZrTRPc1lX4-58" target="xurpzdkw1ZZrTRPc1lX4-79">
          <mxGeometry width="50" height="50" relative="1" as="geometry">
            <mxPoint x="-667.25" y="510" as="sourcePoint" />
            <mxPoint x="-557.25" y="550" as="targetPoint" />
          </mxGeometry>
        </mxCell>
        <mxCell id="xurpzdkw1ZZrTRPc1lX4-83" value="" style="endArrow=none;html=1;rounded=0;entryX=1;entryY=0.25;entryDx=0;entryDy=0;exitX=0;exitY=0.5;exitDx=0;exitDy=0;" edge="1" parent="xurpzdkw1ZZrTRPc1lX4-1" source="xurpzdkw1ZZrTRPc1lX4-62" target="xurpzdkw1ZZrTRPc1lX4-80">
          <mxGeometry width="50" height="50" relative="1" as="geometry">
            <mxPoint x="-627.25" y="750" as="sourcePoint" />
            <mxPoint x="-557.25" y="670" as="targetPoint" />
          </mxGeometry>
        </mxCell>
        <mxCell id="xurpzdkw1ZZrTRPc1lX4-84" style="edgeStyle=orthogonalEdgeStyle;rounded=0;orthogonalLoop=1;jettySize=auto;html=1;exitX=0.5;exitY=0;exitDx=0;exitDy=0;entryX=0;entryY=0.5;entryDx=0;entryDy=0;" edge="1" parent="xurpzdkw1ZZrTRPc1lX4-1" source="xurpzdkw1ZZrTRPc1lX4-85">
          <mxGeometry relative="1" as="geometry">
            <Array as="points">
              <mxPoint x="-964" y="-505" />
            </Array>
            <mxPoint x="-801.5" y="-505" as="targetPoint" />
          </mxGeometry>
        </mxCell>
        <mxCell id="xurpzdkw1ZZrTRPc1lX4-85" value="Comment géré les inconnus ?" style="text;html=1;align=center;verticalAlign=middle;whiteSpace=wrap;rounded=0;fontStyle=5" vertex="1" parent="xurpzdkw1ZZrTRPc1lX4-1">
          <mxGeometry x="-1080" y="-490" width="232.5" height="30" as="geometry" />
        </mxCell>
        <mxCell id="xurpzdkw1ZZrTRPc1lX4-86" value="0,N si création d&#39;1 insecte &quot; inconnu &quot; ?" style="text;html=1;align=center;verticalAlign=middle;whiteSpace=wrap;rounded=0;" vertex="1" parent="xurpzdkw1ZZrTRPc1lX4-1">
          <mxGeometry x="-1080" y="-465" width="232.5" height="30" as="geometry" />
        </mxCell>
        <mxCell id="xurpzdkw1ZZrTRPc1lX4-87" value="1,N" style="text;html=1;align=center;verticalAlign=middle;whiteSpace=wrap;rounded=0;fontStyle=1;fillColor=#60a917;strokeColor=#2D7600;fontColor=#ffffff;" vertex="1" parent="xurpzdkw1ZZrTRPc1lX4-1">
          <mxGeometry x="220" y="-130" width="30" height="30" as="geometry" />
        </mxCell>
        <mxCell id="xurpzdkw1ZZrTRPc1lX4-88" value="0,N" style="text;html=1;align=center;verticalAlign=middle;whiteSpace=wrap;rounded=0;fontStyle=1;fillColor=#60a917;strokeColor=#2D7600;fontColor=#ffffff;" vertex="1" parent="xurpzdkw1ZZrTRPc1lX4-1">
          <mxGeometry x="682" y="-250" width="30" height="30" as="geometry" />
        </mxCell>
        <mxCell id="xurpzdkw1ZZrTRPc1lX4-89" value="1,1" style="text;html=1;align=center;verticalAlign=middle;whiteSpace=wrap;rounded=0;fontStyle=1;fillColor=#60a917;strokeColor=#2D7600;fontColor=#ffffff;rotation=0;" vertex="1" parent="xurpzdkw1ZZrTRPc1lX4-1">
          <mxGeometry x="230.75" y="175" width="30" height="30" as="geometry" />
        </mxCell>
        <mxCell id="xurpzdkw1ZZrTRPc1lX4-90" value="0,N" style="text;html=1;align=center;verticalAlign=middle;whiteSpace=wrap;rounded=0;fontStyle=1;fillColor=#60a917;strokeColor=#2D7600;fontColor=#ffffff;" vertex="1" parent="xurpzdkw1ZZrTRPc1lX4-1">
          <mxGeometry x="697.25" y="30" width="30" height="30" as="geometry" />
        </mxCell>
        <mxCell id="xurpzdkw1ZZrTRPc1lX4-91" value="1,1" style="text;html=1;align=center;verticalAlign=middle;whiteSpace=wrap;rounded=0;fontStyle=1;fillColor=#60a917;strokeColor=#2D7600;fontColor=#ffffff;rotation=0;" vertex="1" parent="xurpzdkw1ZZrTRPc1lX4-1">
          <mxGeometry x="230.75" y="260" width="30" height="30" as="geometry" />
        </mxCell>
        <mxCell id="xurpzdkw1ZZrTRPc1lX4-92" value="0,N" style="text;html=1;align=center;verticalAlign=middle;whiteSpace=wrap;rounded=0;fontStyle=1;fillColor=#60a917;strokeColor=#2D7600;fontColor=#ffffff;" vertex="1" parent="xurpzdkw1ZZrTRPc1lX4-1">
          <mxGeometry x="697.25" y="205" width="30" height="30" as="geometry" />
        </mxCell>
        <mxCell id="xurpzdkw1ZZrTRPc1lX4-93" value="0,N" style="text;html=1;align=center;verticalAlign=middle;whiteSpace=wrap;rounded=0;fontStyle=1;fillColor=#60a917;strokeColor=#2D7600;fontColor=#ffffff;" vertex="1" parent="xurpzdkw1ZZrTRPc1lX4-1">
          <mxGeometry x="697.25" y="400" width="30" height="30" as="geometry" />
        </mxCell>
        <mxCell id="xurpzdkw1ZZrTRPc1lX4-94" value="0,N" style="text;html=1;align=center;verticalAlign=middle;whiteSpace=wrap;rounded=0;fontStyle=1;fillColor=#60a917;strokeColor=#2D7600;fontColor=#ffffff;" vertex="1" parent="xurpzdkw1ZZrTRPc1lX4-1">
          <mxGeometry x="697.25" y="555" width="30" height="30" as="geometry" />
        </mxCell>
        <mxCell id="xurpzdkw1ZZrTRPc1lX4-95" value="0,N" style="text;html=1;align=center;verticalAlign=middle;whiteSpace=wrap;rounded=0;fontStyle=1;fillColor=#60a917;strokeColor=#2D7600;fontColor=#ffffff;" vertex="1" parent="xurpzdkw1ZZrTRPc1lX4-1">
          <mxGeometry x="697.25" y="720" width="30" height="30" as="geometry" />
        </mxCell>
        <mxCell id="xurpzdkw1ZZrTRPc1lX4-96" value="1,1" style="text;html=1;align=center;verticalAlign=middle;whiteSpace=wrap;rounded=0;fontStyle=1;fillColor=#60a917;strokeColor=#2D7600;fontColor=#ffffff;rotation=0;" vertex="1" parent="xurpzdkw1ZZrTRPc1lX4-1">
          <mxGeometry x="230.75" y="340" width="30" height="30" as="geometry" />
        </mxCell>
        <mxCell id="xurpzdkw1ZZrTRPc1lX4-97" value="1,1" style="text;html=1;align=center;verticalAlign=middle;whiteSpace=wrap;rounded=0;fontStyle=1;fillColor=#60a917;strokeColor=#2D7600;fontColor=#ffffff;rotation=0;" vertex="1" parent="xurpzdkw1ZZrTRPc1lX4-1">
          <mxGeometry x="230.75" y="420" width="30" height="30" as="geometry" />
        </mxCell>
        <mxCell id="xurpzdkw1ZZrTRPc1lX4-98" value="1,1" style="text;html=1;align=center;verticalAlign=middle;whiteSpace=wrap;rounded=0;fontStyle=1;fillColor=#60a917;strokeColor=#2D7600;fontColor=#ffffff;rotation=0;" vertex="1" parent="xurpzdkw1ZZrTRPc1lX4-1">
          <mxGeometry x="230.75" y="500" width="30" height="30" as="geometry" />
        </mxCell>
        <mxCell id="xurpzdkw1ZZrTRPc1lX4-127" value="" style="edgeStyle=orthogonalEdgeStyle;rounded=0;orthogonalLoop=1;jettySize=auto;html=1;" edge="1" parent="xurpzdkw1ZZrTRPc1lX4-1" source="xurpzdkw1ZZrTRPc1lX4-129" target="xurpzdkw1ZZrTRPc1lX4-130">
          <mxGeometry relative="1" as="geometry" />
        </mxCell>
        <mxCell id="xurpzdkw1ZZrTRPc1lX4-128" value="" style="edgeStyle=orthogonalEdgeStyle;rounded=0;orthogonalLoop=1;jettySize=auto;html=1;" edge="1" parent="xurpzdkw1ZZrTRPc1lX4-1" source="xurpzdkw1ZZrTRPc1lX4-129" target="xurpzdkw1ZZrTRPc1lX4-131">
          <mxGeometry relative="1" as="geometry" />
        </mxCell>
        <mxCell id="xurpzdkw1ZZrTRPc1lX4-129" value="validation par mail quand inscription" style="text;html=1;align=center;verticalAlign=middle;whiteSpace=wrap;rounded=0;" vertex="1" parent="xurpzdkw1ZZrTRPc1lX4-1">
          <mxGeometry x="1081" y="-407.5" width="160" height="30" as="geometry" />
        </mxCell>
        <mxCell id="xurpzdkw1ZZrTRPc1lX4-130" value="valide" style="text;html=1;align=center;verticalAlign=middle;whiteSpace=wrap;rounded=0;" vertex="1" parent="xurpzdkw1ZZrTRPc1lX4-1">
          <mxGeometry x="1050" y="-340" width="70" height="30" as="geometry" />
        </mxCell>
        <mxCell id="xurpzdkw1ZZrTRPc1lX4-131" value="non valide" style="text;html=1;align=center;verticalAlign=middle;whiteSpace=wrap;rounded=0;" vertex="1" parent="xurpzdkw1ZZrTRPc1lX4-1">
          <mxGeometry x="1170" y="-340" width="90" height="30" as="geometry" />
        </mxCell>
        <mxCell id="xurpzdkw1ZZrTRPc1lX4-132" value="" style="edgeStyle=orthogonalEdgeStyle;rounded=0;orthogonalLoop=1;jettySize=auto;html=1;" edge="1" parent="xurpzdkw1ZZrTRPc1lX4-1" source="xurpzdkw1ZZrTRPc1lX4-135" target="xurpzdkw1ZZrTRPc1lX4-136">
          <mxGeometry relative="1" as="geometry" />
        </mxCell>
        <mxCell id="xurpzdkw1ZZrTRPc1lX4-133" value="" style="edgeStyle=orthogonalEdgeStyle;rounded=0;orthogonalLoop=1;jettySize=auto;html=1;" edge="1" parent="xurpzdkw1ZZrTRPc1lX4-1" source="xurpzdkw1ZZrTRPc1lX4-135" target="xurpzdkw1ZZrTRPc1lX4-136">
          <mxGeometry relative="1" as="geometry" />
        </mxCell>
        <mxCell id="xurpzdkw1ZZrTRPc1lX4-134" value="" style="edgeStyle=orthogonalEdgeStyle;rounded=0;orthogonalLoop=1;jettySize=auto;html=1;" edge="1" parent="xurpzdkw1ZZrTRPc1lX4-1" source="xurpzdkw1ZZrTRPc1lX4-135" target="xurpzdkw1ZZrTRPc1lX4-137">
          <mxGeometry relative="1" as="geometry" />
        </mxCell>
        <mxCell id="xurpzdkw1ZZrTRPc1lX4-135" value="bannir un compte" style="text;html=1;align=center;verticalAlign=middle;whiteSpace=wrap;rounded=0;" vertex="1" parent="xurpzdkw1ZZrTRPc1lX4-1">
          <mxGeometry x="1270" y="-407.5" width="160" height="30" as="geometry" />
        </mxCell>
        <mxCell id="xurpzdkw1ZZrTRPc1lX4-136" value="true" style="text;html=1;align=center;verticalAlign=middle;whiteSpace=wrap;rounded=0;" vertex="1" parent="xurpzdkw1ZZrTRPc1lX4-1">
          <mxGeometry x="1290" y="-310" width="50" height="30" as="geometry" />
        </mxCell>
        <mxCell id="xurpzdkw1ZZrTRPc1lX4-137" value="false" style="text;html=1;align=center;verticalAlign=middle;whiteSpace=wrap;rounded=0;" vertex="1" parent="xurpzdkw1ZZrTRPc1lX4-1">
          <mxGeometry x="1400" y="-310" width="60" height="30" as="geometry" />
        </mxCell>
        <mxCell id="xurpzdkw1ZZrTRPc1lX4-138" value="" style="endArrow=classic;html=1;rounded=0;" edge="1" parent="xurpzdkw1ZZrTRPc1lX4-1">
          <mxGeometry width="50" height="50" relative="1" as="geometry">
            <mxPoint x="1240.3775318796474" y="-423.402229799696" as="sourcePoint" />
            <mxPoint x="1020" y="-420" as="targetPoint" />
            <Array as="points">
              <mxPoint x="1080" y="-480" />
            </Array>
          </mxGeometry>
        </mxCell>
        <mxCell id="xurpzdkw1ZZrTRPc1lX4-139" value="classe d&#39;association" style="text;html=1;align=center;verticalAlign=middle;whiteSpace=wrap;rounded=0;" vertex="1" parent="xurpzdkw1ZZrTRPc1lX4-1">
          <mxGeometry x="379.5" y="-550" width="180" height="30" as="geometry" />
        </mxCell>
        <mxCell id="xurpzdkw1ZZrTRPc1lX4-140" value="photo" style="swimlane;fontStyle=0;childLayout=stackLayout;horizontal=1;startSize=30;horizontalStack=0;resizeParent=1;resizeParentMax=0;resizeLast=0;collapsible=1;marginBottom=0;whiteSpace=wrap;html=1;fillColor=#6d8764;strokeColor=#3A5431;swimlaneFillColor=none;fontColor=#ffffff;" vertex="1" parent="xurpzdkw1ZZrTRPc1lX4-1">
          <mxGeometry x="970" y="-750" width="180" height="120" as="geometry" />
        </mxCell>
        <mxCell id="xurpzdkw1ZZrTRPc1lX4-141" value="id" style="text;strokeColor=#82b366;fillColor=#d5e8d4;align=left;verticalAlign=middle;spacingLeft=4;spacingRight=4;overflow=hidden;points=[[0,0.5],[1,0.5]];portConstraint=eastwest;rotatable=0;whiteSpace=wrap;html=1;" vertex="1" parent="xurpzdkw1ZZrTRPc1lX4-140">
          <mxGeometry y="30" width="180" height="30" as="geometry" />
        </mxCell>
        <mxCell id="xurpzdkw1ZZrTRPc1lX4-142" value="uuid" style="text;strokeColor=none;fillColor=none;align=left;verticalAlign=middle;spacingLeft=4;spacingRight=4;overflow=hidden;points=[[0,0.5],[1,0.5]];portConstraint=eastwest;rotatable=0;whiteSpace=wrap;html=1;" vertex="1" parent="xurpzdkw1ZZrTRPc1lX4-140">
          <mxGeometry y="60" width="180" height="30" as="geometry" />
        </mxCell>
        <mxCell id="xurpzdkw1ZZrTRPc1lX4-143" value="id_observation" style="text;strokeColor=none;fillColor=none;align=left;verticalAlign=middle;spacingLeft=4;spacingRight=4;overflow=hidden;points=[[0,0.5],[1,0.5]];portConstraint=eastwest;rotatable=0;whiteSpace=wrap;html=1;" vertex="1" parent="xurpzdkw1ZZrTRPc1lX4-140">
          <mxGeometry y="90" width="180" height="30" as="geometry" />
        </mxCell>
        <mxCell id="xurpzdkw1ZZrTRPc1lX4-144" value="" style="endArrow=none;html=1;rounded=0;exitX=0;exitY=0.25;exitDx=0;exitDy=0;entryX=1;entryY=0.5;entryDx=0;entryDy=0;" edge="1" parent="xurpzdkw1ZZrTRPc1lX4-1" source="xurpzdkw1ZZrTRPc1lX4-146" target="xurpzdkw1ZZrTRPc1lX4-11">
          <mxGeometry width="50" height="50" relative="1" as="geometry">
            <mxPoint x="650" y="-640" as="sourcePoint" />
            <mxPoint x="580" y="-420" as="targetPoint" />
          </mxGeometry>
        </mxCell>
        <mxCell id="xurpzdkw1ZZrTRPc1lX4-145" value="0,N" style="text;html=1;align=center;verticalAlign=middle;whiteSpace=wrap;rounded=0;fontStyle=1;fillColor=#60a917;strokeColor=#2D7600;fontColor=#ffffff;" vertex="1" parent="xurpzdkw1ZZrTRPc1lX4-1">
          <mxGeometry x="600" y="-580" width="30" height="30" as="geometry" />
        </mxCell>
        <mxCell id="xurpzdkw1ZZrTRPc1lX4-146" value="contient&lt;div&gt;être contenu&lt;/div&gt;" style="swimlane;fontStyle=0;childLayout=stackLayout;horizontal=1;startSize=30;horizontalStack=0;resizeParent=1;resizeParentMax=0;resizeLast=0;collapsible=1;marginBottom=0;whiteSpace=wrap;html=1;fillColor=#6d8764;strokeColor=#3A5431;swimlaneFillColor=none;fontColor=#ffffff;" vertex="1" parent="xurpzdkw1ZZrTRPc1lX4-1">
          <mxGeometry x="659" y="-710" width="180" height="60" as="geometry" />
        </mxCell>
        <mxCell id="xurpzdkw1ZZrTRPc1lX4-147" value="" style="endArrow=none;html=1;rounded=0;entryX=1;entryY=0.25;entryDx=0;entryDy=0;exitX=0;exitY=0.5;exitDx=0;exitDy=0;" edge="1" parent="xurpzdkw1ZZrTRPc1lX4-1" source="xurpzdkw1ZZrTRPc1lX4-141" target="xurpzdkw1ZZrTRPc1lX4-146">
          <mxGeometry width="50" height="50" relative="1" as="geometry">
            <mxPoint x="900.5" y="-665" as="sourcePoint" />
            <mxPoint x="810.5" y="-465" as="targetPoint" />
          </mxGeometry>
        </mxCell>
        <mxCell id="xurpzdkw1ZZrTRPc1lX4-148" value="1,1" style="text;html=1;align=center;verticalAlign=middle;whiteSpace=wrap;rounded=0;fontStyle=1;fillColor=#60a917;strokeColor=#2D7600;fontColor=#ffffff;" vertex="1" parent="xurpzdkw1ZZrTRPc1lX4-1">
          <mxGeometry x="890" y="-705" width="30" height="30" as="geometry" />
        </mxCell>
        <mxCell id="xurpzdkw1ZZrTRPc1lX4-149" value="classe d&#39;entité" style="text;html=1;align=center;verticalAlign=middle;whiteSpace=wrap;rounded=0;" vertex="1" parent="xurpzdkw1ZZrTRPc1lX4-1">
          <mxGeometry x="839" y="-437.5" width="180" height="30" as="geometry" />
        </mxCell>
        <mxCell id="xurpzdkw1ZZrTRPc1lX4-150" value="classe d&#39;entité" style="text;html=1;align=center;verticalAlign=middle;whiteSpace=wrap;rounded=0;" vertex="1" parent="xurpzdkw1ZZrTRPc1lX4-1">
          <mxGeometry x="970" y="-780" width="180" height="30" as="geometry" />
        </mxCell>
        <mxCell id="xurpzdkw1ZZrTRPc1lX4-151" value="classe d&#39;entité" style="text;html=1;align=center;verticalAlign=middle;whiteSpace=wrap;rounded=0;" vertex="1" parent="xurpzdkw1ZZrTRPc1lX4-1">
          <mxGeometry x="-90" y="-185" width="180" height="30" as="geometry" />
        </mxCell>
        <mxCell id="xurpzdkw1ZZrTRPc1lX4-152" value="classe d&#39;entité" style="text;html=1;align=center;verticalAlign=middle;whiteSpace=wrap;rounded=0;" vertex="1" parent="xurpzdkw1ZZrTRPc1lX4-1">
          <mxGeometry x="839" y="-80" width="180" height="30" as="geometry" />
        </mxCell>
        <mxCell id="xurpzdkw1ZZrTRPc1lX4-153" value="classe d&#39;entité" style="text;html=1;align=center;verticalAlign=middle;whiteSpace=wrap;rounded=0;" vertex="1" parent="xurpzdkw1ZZrTRPc1lX4-1">
          <mxGeometry x="839" y="120" width="180" height="30" as="geometry" />
        </mxCell>
        <mxCell id="xurpzdkw1ZZrTRPc1lX4-154" value="classe d&#39;entité" style="text;html=1;align=center;verticalAlign=middle;whiteSpace=wrap;rounded=0;" vertex="1" parent="xurpzdkw1ZZrTRPc1lX4-1">
          <mxGeometry x="839" y="380" width="180" height="30" as="geometry" />
        </mxCell>
        <mxCell id="xurpzdkw1ZZrTRPc1lX4-155" value="classe d&#39;entité" style="text;html=1;align=center;verticalAlign=middle;whiteSpace=wrap;rounded=0;" vertex="1" parent="xurpzdkw1ZZrTRPc1lX4-1">
          <mxGeometry x="839" y="580" width="180" height="30" as="geometry" />
        </mxCell>
        <mxCell id="xurpzdkw1ZZrTRPc1lX4-156" value="classe d&#39;entité" style="text;html=1;align=center;verticalAlign=middle;whiteSpace=wrap;rounded=0;" vertex="1" parent="xurpzdkw1ZZrTRPc1lX4-1">
          <mxGeometry x="839" y="780" width="180" height="30" as="geometry" />
        </mxCell>
        <mxCell id="xurpzdkw1ZZrTRPc1lX4-157" value="classe d&#39;association" style="text;html=1;align=center;verticalAlign=middle;whiteSpace=wrap;rounded=0;" vertex="1" parent="xurpzdkw1ZZrTRPc1lX4-1">
          <mxGeometry x="379.5" y="80" width="180" height="30" as="geometry" />
        </mxCell>
        <mxCell id="xurpzdkw1ZZrTRPc1lX4-158" value="classe d&#39;association" style="text;html=1;align=center;verticalAlign=middle;whiteSpace=wrap;rounded=0;" vertex="1" parent="xurpzdkw1ZZrTRPc1lX4-1">
          <mxGeometry x="379.5" y="200" width="180" height="30" as="geometry" />
        </mxCell>
        <mxCell id="xurpzdkw1ZZrTRPc1lX4-159" value="classe d&#39;association" style="text;html=1;align=center;verticalAlign=middle;whiteSpace=wrap;rounded=0;" vertex="1" parent="xurpzdkw1ZZrTRPc1lX4-1">
          <mxGeometry x="379.5" y="320" width="180" height="30" as="geometry" />
        </mxCell>
        <mxCell id="xurpzdkw1ZZrTRPc1lX4-160" value="classe d&#39;association" style="text;html=1;align=center;verticalAlign=middle;whiteSpace=wrap;rounded=0;" vertex="1" parent="xurpzdkw1ZZrTRPc1lX4-1">
          <mxGeometry x="379.5" y="440" width="180" height="30" as="geometry" />
        </mxCell>
        <mxCell id="xurpzdkw1ZZrTRPc1lX4-161" value="classe d&#39;association" style="text;html=1;align=center;verticalAlign=middle;whiteSpace=wrap;rounded=0;" vertex="1" parent="xurpzdkw1ZZrTRPc1lX4-1">
          <mxGeometry x="379.5" y="560" width="180" height="30" as="geometry" />
        </mxCell>
        <mxCell id="xurpzdkw1ZZrTRPc1lX4-162" value="questionnements" style="text;html=1;align=center;verticalAlign=middle;whiteSpace=wrap;rounded=0;" vertex="1" parent="xurpzdkw1ZZrTRPc1lX4-1">
          <mxGeometry x="1175" y="-480" width="160" height="30" as="geometry" />
        </mxCell>
        <mxCell id="xurpzdkw1ZZrTRPc1lX4-163" value="classe d&#39;association" style="text;html=1;align=center;verticalAlign=middle;whiteSpace=wrap;rounded=0;" vertex="1" parent="xurpzdkw1ZZrTRPc1lX4-1">
          <mxGeometry x="659" y="-740" width="180" height="30" as="geometry" />
        </mxCell>
        <mxCell id="cxVBOcpbcTRodDaBpgam-0" value="1 insecte est observé par N utilisateurices" style="text;html=1;align=left;verticalAlign=middle;whiteSpace=wrap;rounded=0;fillColor=#d5e8d4;strokeColor=#82b366;" vertex="1" parent="xurpzdkw1ZZrTRPc1lX4-1">
          <mxGeometry x="-801.5" y="-520" width="280.25" height="30" as="geometry" />
        </mxCell>
        <mxCell id="cxVBOcpbcTRodDaBpgam-1" value="1 insecte habite 1 habitat" style="text;html=1;align=left;verticalAlign=middle;whiteSpace=wrap;rounded=0;fillColor=#d5e8d4;rotation=0;strokeColor=#82b366;" vertex="1" parent="xurpzdkw1ZZrTRPc1lX4-1">
          <mxGeometry x="-801.5" y="-442.5" width="280.25" height="30" as="geometry" />
        </mxCell>
        <mxCell id="cxVBOcpbcTRodDaBpgam-2" value="1 insecte possède 1 cycle de vie" style="text;html=1;align=left;verticalAlign=middle;whiteSpace=wrap;rounded=0;fillColor=#d5e8d4;rotation=0;strokeColor=#82b366;" vertex="1" parent="xurpzdkw1ZZrTRPc1lX4-1">
          <mxGeometry x="-801.5" y="-402.5" width="280.25" height="30" as="geometry" />
        </mxCell>
        <mxCell id="cxVBOcpbcTRodDaBpgam-3" value="1 insecte est caractérisé par 1 caractéristique" style="text;html=1;align=left;verticalAlign=middle;whiteSpace=wrap;rounded=0;fillColor=#d5e8d4;rotation=0;strokeColor=#82b366;" vertex="1" parent="xurpzdkw1ZZrTRPc1lX4-1">
          <mxGeometry x="-801.5" y="-362.5" width="280.25" height="30" as="geometry" />
        </mxCell>
        <mxCell id="cxVBOcpbcTRodDaBpgam-4" value="1 insecte engendre 1 menace" style="text;html=1;align=left;verticalAlign=middle;whiteSpace=wrap;rounded=0;fillColor=#d5e8d4;rotation=0;strokeColor=#82b366;" vertex="1" parent="xurpzdkw1ZZrTRPc1lX4-1">
          <mxGeometry x="-801.25" y="-322.5" width="280" height="30" as="geometry" />
        </mxCell>
        <mxCell id="cxVBOcpbcTRodDaBpgam-5" value="1 insecte est composé par 1 comportement" style="text;html=1;align=left;verticalAlign=middle;whiteSpace=wrap;rounded=0;fillColor=#d5e8d4;rotation=0;strokeColor=#82b366;" vertex="1" parent="xurpzdkw1ZZrTRPc1lX4-1">
          <mxGeometry x="-801.5" y="-282.5" width="280.25" height="30" as="geometry" />
        </mxCell>
        <mxCell id="cxVBOcpbcTRodDaBpgam-6" value="1 insecte créé&amp;nbsp;&lt;span style=&quot;background-color: initial;&quot;&gt;1 intérêt humain&lt;/span&gt;" style="text;html=1;align=left;verticalAlign=middle;whiteSpace=wrap;rounded=0;fillColor=#d5e8d4;strokeColor=#82b366;" vertex="1" parent="xurpzdkw1ZZrTRPc1lX4-1">
          <mxGeometry x="-801.25" y="-242.5" width="279.62" height="30" as="geometry" />
        </mxCell>
        <mxCell id="cxVBOcpbcTRodDaBpgam-7" value="N utilisateurices observent N insectes" style="text;html=1;align=left;verticalAlign=middle;whiteSpace=wrap;rounded=0;fillColor=#d5e8d4;strokeColor=#82b366;" vertex="1" parent="xurpzdkw1ZZrTRPc1lX4-1">
          <mxGeometry x="-441.25" y="-520" width="230" height="30" as="geometry" />
        </mxCell>
        <mxCell id="cxVBOcpbcTRodDaBpgam-8" value="1,N" style="text;html=1;align=center;verticalAlign=middle;whiteSpace=wrap;rounded=0;fontStyle=1;fillColor=#60a917;strokeColor=#2D7600;fontColor=#ffffff;" vertex="1" parent="xurpzdkw1ZZrTRPc1lX4-1">
          <mxGeometry x="-521.25" y="-520" width="30" height="30" as="geometry" />
        </mxCell>
        <mxCell id="cxVBOcpbcTRodDaBpgam-9" value="0,N" style="text;html=1;align=center;verticalAlign=middle;whiteSpace=wrap;rounded=0;fontStyle=1;fillColor=#60a917;strokeColor=#2D7600;fontColor=#ffffff;" vertex="1" parent="xurpzdkw1ZZrTRPc1lX4-1">
          <mxGeometry x="-211.25" y="-520" width="30" height="30" as="geometry" />
        </mxCell>
        <mxCell id="cxVBOcpbcTRodDaBpgam-10" value="1,1" style="text;html=1;align=center;verticalAlign=middle;whiteSpace=wrap;rounded=0;fontStyle=1;fillColor=#60a917;strokeColor=#2D7600;fontColor=#ffffff;rotation=0;" vertex="1" parent="xurpzdkw1ZZrTRPc1lX4-1">
          <mxGeometry x="-521.63" y="-442.5" width="30" height="30" as="geometry" />
        </mxCell>
        <mxCell id="cxVBOcpbcTRodDaBpgam-11" value="1,1" style="text;html=1;align=center;verticalAlign=middle;whiteSpace=wrap;rounded=0;fontStyle=1;fillColor=#60a917;strokeColor=#2D7600;fontColor=#ffffff;rotation=0;" vertex="1" parent="xurpzdkw1ZZrTRPc1lX4-1">
          <mxGeometry x="-521.25" y="-402.5" width="30" height="30" as="geometry" />
        </mxCell>
        <mxCell id="cxVBOcpbcTRodDaBpgam-12" value="1,1" style="text;html=1;align=center;verticalAlign=middle;whiteSpace=wrap;rounded=0;fontStyle=1;fillColor=#60a917;strokeColor=#2D7600;fontColor=#ffffff;rotation=0;" vertex="1" parent="xurpzdkw1ZZrTRPc1lX4-1">
          <mxGeometry x="-521.25" y="-362.5" width="30" height="30" as="geometry" />
        </mxCell>
        <mxCell id="cxVBOcpbcTRodDaBpgam-13" value="1,1" style="text;html=1;align=center;verticalAlign=middle;whiteSpace=wrap;rounded=0;fontStyle=1;fillColor=#60a917;strokeColor=#2D7600;fontColor=#ffffff;rotation=0;" vertex="1" parent="xurpzdkw1ZZrTRPc1lX4-1">
          <mxGeometry x="-521.63" y="-322.5" width="30" height="30" as="geometry" />
        </mxCell>
        <mxCell id="cxVBOcpbcTRodDaBpgam-14" value="1,1" style="text;html=1;align=center;verticalAlign=middle;whiteSpace=wrap;rounded=0;fontStyle=1;fillColor=#60a917;strokeColor=#2D7600;fontColor=#ffffff;rotation=0;" vertex="1" parent="xurpzdkw1ZZrTRPc1lX4-1">
          <mxGeometry x="-521.25" y="-282.5" width="30" height="30" as="geometry" />
        </mxCell>
        <mxCell id="cxVBOcpbcTRodDaBpgam-15" value="1,1" style="text;html=1;align=center;verticalAlign=middle;whiteSpace=wrap;rounded=0;fontStyle=1;fillColor=#60a917;strokeColor=#2D7600;fontColor=#ffffff;rotation=0;" vertex="1" parent="xurpzdkw1ZZrTRPc1lX4-1">
          <mxGeometry x="-521.25" y="-242.5" width="30" height="30" as="geometry" />
        </mxCell>
        <mxCell id="cxVBOcpbcTRodDaBpgam-16" value="0 habitat est habité par N insectes" style="text;html=1;align=left;verticalAlign=middle;whiteSpace=wrap;rounded=0;fillColor=#d5e8d4;strokeColor=#82b366;" vertex="1" parent="xurpzdkw1ZZrTRPc1lX4-1">
          <mxGeometry x="-441.25" y="-442.5" width="230" height="30" as="geometry" />
        </mxCell>
        <mxCell id="cxVBOcpbcTRodDaBpgam-17" value="0 cycle de vie est possédé par N insectes" style="text;html=1;align=left;verticalAlign=middle;whiteSpace=wrap;rounded=0;fillColor=#d5e8d4;strokeColor=#82b366;" vertex="1" parent="xurpzdkw1ZZrTRPc1lX4-1">
          <mxGeometry x="-441.25" y="-402.5" width="230" height="30" as="geometry" />
        </mxCell>
        <mxCell id="cxVBOcpbcTRodDaBpgam-18" value="0,N" style="text;html=1;align=center;verticalAlign=middle;whiteSpace=wrap;rounded=0;fontStyle=1;fillColor=#60a917;strokeColor=#2D7600;fontColor=#ffffff;" vertex="1" parent="xurpzdkw1ZZrTRPc1lX4-1">
          <mxGeometry x="-211.25" y="-442.5" width="30" height="30" as="geometry" />
        </mxCell>
        <mxCell id="cxVBOcpbcTRodDaBpgam-19" value="0,N" style="text;html=1;align=center;verticalAlign=middle;whiteSpace=wrap;rounded=0;fontStyle=1;fillColor=#60a917;strokeColor=#2D7600;fontColor=#ffffff;" vertex="1" parent="xurpzdkw1ZZrTRPc1lX4-1">
          <mxGeometry x="-211.25" y="-402.5" width="30" height="30" as="geometry" />
        </mxCell>
        <mxCell id="cxVBOcpbcTRodDaBpgam-20" value="0 menace est engendré par N insectes" style="text;html=1;align=left;verticalAlign=middle;whiteSpace=wrap;rounded=0;fillColor=#d5e8d4;strokeColor=#82b366;" vertex="1" parent="xurpzdkw1ZZrTRPc1lX4-1">
          <mxGeometry x="-441.25" y="-322.5" width="230" height="30" as="geometry" />
        </mxCell>
        <mxCell id="cxVBOcpbcTRodDaBpgam-21" value="0 comportements composent N insectes" style="text;html=1;align=left;verticalAlign=middle;whiteSpace=wrap;rounded=0;fillColor=#d5e8d4;strokeColor=#82b366;" vertex="1" parent="xurpzdkw1ZZrTRPc1lX4-1">
          <mxGeometry x="-441.25" y="-282.5" width="230" height="30" as="geometry" />
        </mxCell>
        <mxCell id="cxVBOcpbcTRodDaBpgam-22" value="0 intéret humain est créé par N insectes" style="text;html=1;align=left;verticalAlign=middle;whiteSpace=wrap;rounded=0;fillColor=#d5e8d4;strokeColor=#82b366;" vertex="1" parent="xurpzdkw1ZZrTRPc1lX4-1">
          <mxGeometry x="-441.25" y="-242.5" width="230" height="30" as="geometry" />
        </mxCell>
        <mxCell id="cxVBOcpbcTRodDaBpgam-23" value="0 caractéristique caractéristise N insectes" style="text;html=1;align=left;verticalAlign=middle;whiteSpace=wrap;rounded=0;fillColor=#d5e8d4;strokeColor=#82b366;" vertex="1" parent="xurpzdkw1ZZrTRPc1lX4-1">
          <mxGeometry x="-441.25" y="-362.5" width="230" height="30" as="geometry" />
        </mxCell>
        <mxCell id="cxVBOcpbcTRodDaBpgam-24" value="0,N" style="text;html=1;align=center;verticalAlign=middle;whiteSpace=wrap;rounded=0;fontStyle=1;fillColor=#60a917;strokeColor=#2D7600;fontColor=#ffffff;" vertex="1" parent="xurpzdkw1ZZrTRPc1lX4-1">
          <mxGeometry x="-211.25" y="-362.5" width="30" height="30" as="geometry" />
        </mxCell>
        <mxCell id="cxVBOcpbcTRodDaBpgam-25" value="0,N" style="text;html=1;align=center;verticalAlign=middle;whiteSpace=wrap;rounded=0;fontStyle=1;fillColor=#60a917;strokeColor=#2D7600;fontColor=#ffffff;" vertex="1" parent="xurpzdkw1ZZrTRPc1lX4-1">
          <mxGeometry x="-211.25" y="-322.5" width="30" height="30" as="geometry" />
        </mxCell>
        <mxCell id="cxVBOcpbcTRodDaBpgam-26" value="0,N" style="text;html=1;align=center;verticalAlign=middle;whiteSpace=wrap;rounded=0;fontStyle=1;fillColor=#60a917;strokeColor=#2D7600;fontColor=#ffffff;" vertex="1" parent="xurpzdkw1ZZrTRPc1lX4-1">
          <mxGeometry x="-211.25" y="-282.5" width="30" height="30" as="geometry" />
        </mxCell>
        <mxCell id="cxVBOcpbcTRodDaBpgam-27" value="0,N" style="text;html=1;align=center;verticalAlign=middle;whiteSpace=wrap;rounded=0;fontStyle=1;fillColor=#60a917;strokeColor=#2D7600;fontColor=#ffffff;" vertex="1" parent="xurpzdkw1ZZrTRPc1lX4-1">
          <mxGeometry x="-211.25" y="-242.5" width="30" height="30" as="geometry" />
        </mxCell>
        <mxCell id="cxVBOcpbcTRodDaBpgam-28" value="1 observation contient 0 ou plusieurs photo" style="text;html=1;align=left;verticalAlign=middle;whiteSpace=wrap;rounded=0;fillColor=#d5e8d4;strokeColor=#82b366;" vertex="1" parent="xurpzdkw1ZZrTRPc1lX4-1">
          <mxGeometry x="-801.5" y="-480" width="280.25" height="30" as="geometry" />
        </mxCell>
        <mxCell id="cxVBOcpbcTRodDaBpgam-29" value="1 photo est contenue dans 1 observation" style="text;html=1;align=left;verticalAlign=middle;whiteSpace=wrap;rounded=0;fillColor=#d5e8d4;strokeColor=#82b366;" vertex="1" parent="xurpzdkw1ZZrTRPc1lX4-1">
          <mxGeometry x="-441.25" y="-480" width="230" height="30" as="geometry" />
        </mxCell>
        <mxCell id="cxVBOcpbcTRodDaBpgam-30" value="0,N" style="text;html=1;align=center;verticalAlign=middle;whiteSpace=wrap;rounded=0;fontStyle=1;fillColor=#60a917;strokeColor=#2D7600;fontColor=#ffffff;" vertex="1" parent="xurpzdkw1ZZrTRPc1lX4-1">
          <mxGeometry x="-521.25" y="-480" width="30" height="30" as="geometry" />
        </mxCell>
        <mxCell id="cxVBOcpbcTRodDaBpgam-31" value="1,1" style="text;html=1;align=center;verticalAlign=middle;whiteSpace=wrap;rounded=0;fontStyle=1;fillColor=#60a917;strokeColor=#2D7600;fontColor=#ffffff;" vertex="1" parent="xurpzdkw1ZZrTRPc1lX4-1">
          <mxGeometry x="-211.25" y="-480" width="30" height="30" as="geometry" />
        </mxCell>
      </root>
    </mxGraphModel>
  </diagram>
</mxfile>
